STARTFONT 2.1
FONT -Adobe-New Century Schoolbook-Medium-I-Normal--18-180-75-75-P-104-ISO10646-1
SIZE 18 75 75
FONTBOUNDINGBOX 25 30 -2 -8
COMMENT $XFree86$
COMMENT ISO10646-1 extension by Markus Kuhn <mkuhn@acm.org>, 2001-03-20
COMMENT 
COMMENT +
COMMENT  Copyright 1984-1989, 1994 Adobe Systems Incorporated.
COMMENT  Copyright 1988, 1994 Digital Equipment Corporation.
COMMENT
COMMENT  Adobe is a trademark of Adobe Systems Incorporated which may be
COMMENT  registered in certain jurisdictions.
COMMENT  Permission to use these trademarks is hereby granted only in
COMMENT  association with the images described in this file.
COMMENT
COMMENT  Permission to use, copy, modify, distribute and sell this software
COMMENT  and its documentation for any purpose and without fee is hereby
COMMENT  granted, provided that the above copyright notices appear in all
COMMENT  copies and that both those copyright notices and this permission
COMMENT  notice appear in supporting documentation, and that the names of
COMMENT  Adobe Systems and Digital Equipment Corporation not be used in
COMMENT  advertising or publicity pertaining to distribution of the software
COMMENT  without specific, written prior permission.  Adobe Systems and
COMMENT  Digital Equipment Corporation make no representations about the
COMMENT  suitability of this software for any purpose.  It is provided "as
COMMENT  is" without express or implied warranty.
COMMENT -
STARTPROPERTIES 26
FOUNDRY "Adobe"
FAMILY_NAME "New Century Schoolbook"
WEIGHT_NAME "Medium"
SLANT "I"
SETWIDTH_NAME "Normal"
ADD_STYLE_NAME ""
PIXEL_SIZE 18
POINT_SIZE 180
RESOLUTION_X 75
RESOLUTION_Y 75
SPACING "P"
AVERAGE_WIDTH 104
CHARSET_REGISTRY "ISO10646"
CHARSET_ENCODING "1"
CAP_HEIGHT 14
X_HEIGHT 9
FONT_ASCENT 16
FONT_DESCENT 4
FACE_NAME "New Century Schoolbook Italic"
COPYRIGHT "Copyright (c) 1984, 1987 Adobe Systems Incorporated. All Rights Reserved. Copyright (c) 1988, 1991 Digital Equipment Corporation. All Rights Reserved."

STARTCHAR char0
ENCODING 0
SWIDTH 833 0
DWIDTH 15 0
BBX 13 13 1 0
BITMAP
AAA8
0000
8008
0000
8008
0000
8008
0000
8008
0000
8008
0000
AAA8
ENDCHAR
STARTCHAR space
ENCODING 32
SWIDTH 278 0
DWIDTH 5 0
BBX 1 1 0 0
BITMAP
00
ENDCHAR
STARTCHAR exclam
ENCODING 33
SWIDTH 333 0
DWIDTH 7 0
BBX 4 14 2 0
BITMAP
30
30
30
30
20
60
60
40
40
40
00
00
C0
C0
ENDCHAR
STARTCHAR quotedbl
ENCODING 34
SWIDTH 400 0
DWIDTH 7 0
BBX 5 5 2 9
BITMAP
D8
D8
90
90
90
ENDCHAR
STARTCHAR numbersign
ENCODING 35
SWIDTH 606 0
DWIDTH 11 0
BBX 10 13 1 0
BITMAP
0900
0900
0900
0900
7FC0
1200
1200
1200
FF80
2400
2400
2400
2400
ENDCHAR
STARTCHAR dollar
ENCODING 36
SWIDTH 556 0
DWIDTH 10 0
BBX 9 16 1 -2
BITMAP
0200
0F80
3580
2500
4800
6800
7800
3E00
0F00
0B00
0900
5200
D600
F800
2000
2000
ENDCHAR
STARTCHAR percent
ENCODING 37
SWIDTH 833 0
DWIDTH 16 0
BBX 15 14 1 0
BITMAP
1C60
33A0
6240
6240
C480
C480
C91C
7132
0262
0262
04C4
04C4
08C8
0870
ENDCHAR
STARTCHAR ampersand
ENCODING 38
SWIDTH 852 0
DWIDTH 15 0
BBX 14 14 1 0
BITMAP
0780
08C0
18C0
18C0
1980
0E00
3C3C
6618
C610
C320
C320
C1C0
6188
3EF0
ENDCHAR
STARTCHAR quotesingle
ENCODING 39
SWIDTH 278 0
DWIDTH 4 0
BBX 1 5 2 9
BITMAP
80
80
80
80
80
ENDCHAR
STARTCHAR parenleft
ENCODING 40
SWIDTH 333 0
DWIDTH 7 0
BBX 6 16 1 -2
BITMAP
04
08
10
30
60
60
C0
C0
C0
C0
C0
C0
60
60
20
10
ENDCHAR
STARTCHAR parenright
ENCODING 41
SWIDTH 333 0
DWIDTH 7 0
BBX 6 16 0 -2
BITMAP
20
10
18
18
0C
0C
0C
0C
0C
0C
18
18
30
20
40
80
ENDCHAR
STARTCHAR asterisk
ENCODING 42
SWIDTH 500 0
DWIDTH 9 0
BBX 8 7 1 6
BITMAP
66
24
99
FF
99
24
66
ENDCHAR
STARTCHAR plus
ENCODING 43
SWIDTH 606 0
DWIDTH 10 0
BBX 9 9 1 1
BITMAP
0800
0800
0800
0800
FF80
0800
0800
0800
0800
ENDCHAR
STARTCHAR comma
ENCODING 44
SWIDTH 278 0
DWIDTH 5 0
BBX 3 5 0 -3
BITMAP
60
60
20
40
80
ENDCHAR
STARTCHAR hyphen
ENCODING 45
SWIDTH 333 0
DWIDTH 6 0
BBX 5 1 0 5
BITMAP
F8
ENDCHAR
STARTCHAR period
ENCODING 46
SWIDTH 278 0
DWIDTH 5 0
BBX 2 2 1 0
BITMAP
C0
C0
ENDCHAR
STARTCHAR slash
ENCODING 47
SWIDTH 606 0
DWIDTH 10 0
BBX 5 15 2 -1
BITMAP
08
08
08
10
10
10
20
20
20
40
40
40
80
80
80
ENDCHAR
STARTCHAR zero
ENCODING 48
SWIDTH 556 0
DWIDTH 10 0
BBX 9 14 1 0
BITMAP
0E00
1300
2180
6180
6180
6180
C180
C180
C300
C300
C300
C200
6400
3800
ENDCHAR
STARTCHAR one
ENCODING 49
SWIDTH 556 0
DWIDTH 10 0
BBX 6 14 2 0
BITMAP
04
0C
3C
0C
0C
18
18
18
18
30
30
30
30
FC
ENDCHAR
STARTCHAR two
ENCODING 50
SWIDTH 556 0
DWIDTH 10 0
BBX 9 14 1 0
BITMAP
0E00
3180
6180
6180
0180
0300
0300
0600
0C00
1800
3080
6080
FF00
FF00
ENDCHAR
STARTCHAR three
ENCODING 51
SWIDTH 556 0
DWIDTH 10 0
BBX 9 14 1 0
BITMAP
0F00
1180
3180
3180
0100
0200
1C00
0700
0300
0300
0300
C600
C400
7800
ENDCHAR
STARTCHAR four
ENCODING 52
SWIDTH 556 0
DWIDTH 10 0
BBX 9 14 1 0
BITMAP
0180
0380
0580
0980
0980
1300
2300
4300
4300
8600
FF80
0600
0600
1F80
ENDCHAR
STARTCHAR five
ENCODING 53
SWIDTH 556 0
DWIDTH 10 0
BBX 9 14 1 0
BITMAP
1F80
1F00
1000
1000
2000
3E00
2300
0300
0300
0300
0300
C600
C400
7800
ENDCHAR
STARTCHAR six
ENCODING 54
SWIDTH 556 0
DWIDTH 10 0
BBX 9 14 1 0
BITMAP
0F00
1180
2180
6000
6000
6E00
D100
E180
C180
C180
C300
C300
6600
3800
ENDCHAR
STARTCHAR seven
ENCODING 55
SWIDTH 556 0
DWIDTH 10 0
BBX 9 14 2 0
BITMAP
7F80
7F80
8100
8300
0200
0600
0400
0C00
0800
1800
1000
3000
3000
3000
ENDCHAR
STARTCHAR eight
ENCODING 56
SWIDTH 556 0
DWIDTH 10 0
BBX 9 14 1 0
BITMAP
0F00
1980
3080
3080
3080
1900
1E00
2300
6180
C180
C180
C300
4300
3C00
ENDCHAR
STARTCHAR nine
ENCODING 57
SWIDTH 556 0
DWIDTH 10 0
BBX 9 14 1 0
BITMAP
0E00
3300
6180
6180
C180
C180
C380
4580
3B00
0300
0300
C200
C400
7800
ENDCHAR
STARTCHAR colon
ENCODING 58
SWIDTH 278 0
DWIDTH 5 0
BBX 3 9 1 0
BITMAP
60
60
00
00
00
00
00
C0
C0
ENDCHAR
STARTCHAR semicolon
ENCODING 59
SWIDTH 278 0
DWIDTH 5 0
BBX 4 12 0 -3
BITMAP
30
30
00
00
00
00
00
60
60
20
40
80
ENDCHAR
STARTCHAR less
ENCODING 60
SWIDTH 606 0
DWIDTH 11 0
BBX 10 9 0 1
BITMAP
00C0
0380
0E00
3800
E000
3800
0E00
0380
00C0
ENDCHAR
STARTCHAR equal
ENCODING 61
SWIDTH 606 0
DWIDTH 11 0
BBX 9 4 1 4
BITMAP
FF80
0000
0000
FF80
ENDCHAR
STARTCHAR greater
ENCODING 62
SWIDTH 606 0
DWIDTH 11 0
BBX 10 9 1 1
BITMAP
C000
7000
1C00
0700
01C0
0700
1C00
7000
C000
ENDCHAR
STARTCHAR question
ENCODING 63
SWIDTH 444 0
DWIDTH 9 0
BBX 7 14 2 0
BITMAP
3C
46
46
06
0C
18
60
C0
90
60
00
00
C0
C0
ENDCHAR
STARTCHAR at
ENCODING 64
SWIDTH 747 0
DWIDTH 15 0
BBX 14 14 1 0
BITMAP
07C0
1830
2008
4368
4CE4
8C64
9864
98C8
98C8
99D0
4EE0
4000
3020
0FC0
ENDCHAR
STARTCHAR A
ENCODING 65
SWIDTH 704 0
DWIDTH 13 0
BBX 12 14 0 0
BITMAP
0100
0300
0380
0580
0580
08C0
08C0
10C0
1FC0
2060
2060
4060
4060
E0F0
ENDCHAR
STARTCHAR B
ENCODING 66
SWIDTH 722 0
DWIDTH 13 0
BBX 12 14 1 0
BITMAP
3FC0
1830
1830
1830
1830
3060
3F80
30C0
3060
6060
6060
6040
60C0
FF00
ENDCHAR
STARTCHAR C
ENCODING 67
SWIDTH 722 0
DWIDTH 13 0
BBX 12 14 1 0
BITMAP
07D0
1830
3020
6020
6020
C000
C000
C000
C000
C020
C020
6040
60C0
1F00
ENDCHAR
STARTCHAR D
ENCODING 68
SWIDTH 778 0
DWIDTH 15 0
BBX 13 14 1 0
BITMAP
3FE0
1830
1818
1818
1818
3018
3018
3018
3030
6030
6030
6060
60C0
FF00
ENDCHAR
STARTCHAR E
ENCODING 69
SWIDTH 722 0
DWIDTH 13 0
BBX 12 14 1 0
BITMAP
3FF0
1830
1810
1810
1880
3080
3F00
3300
3100
6120
6020
6040
60C0
FFC0
ENDCHAR
STARTCHAR F
ENCODING 70
SWIDTH 667 0
DWIDTH 12 0
BBX 11 14 1 0
BITMAP
3FE0
1860
1820
1820
1880
3080
3F00
3300
3100
6100
6000
6000
6000
F000
ENDCHAR
STARTCHAR G
ENCODING 71
SWIDTH 778 0
DWIDTH 14 0
BBX 13 14 1 0
BITMAP
07C8
1838
3010
6010
6010
C000
C000
C0F8
C030
C030
C060
6060
60E0
1F20
ENDCHAR
STARTCHAR H
ENCODING 72
SWIDTH 833 0
DWIDTH 15 0
BBX 14 14 1 0
BITMAP
3C3C
1818
1818
1818
1818
3030
3FF0
3030
3030
6060
6060
6060
6060
F0F0
ENDCHAR
STARTCHAR I
ENCODING 73
SWIDTH 407 0
DWIDTH 8 0
BBX 6 14 2 0
BITMAP
3C
18
18
18
18
30
30
30
30
60
60
60
60
F0
ENDCHAR
STARTCHAR J
ENCODING 74
SWIDTH 611 0
DWIDTH 10 0
BBX 10 14 0 0
BITMAP
03C0
0180
0180
0180
0300
0300
0300
0300
0600
0600
C600
C400
8C00
7000
ENDCHAR
STARTCHAR K
ENCODING 75
SWIDTH 741 0
DWIDTH 14 0
BBX 13 14 1 0
BITMAP
3C38
1820
1840
1880
1900
3200
3700
3B00
3180
6180
60C0
60C0
6060
F0F8
ENDCHAR
STARTCHAR L
ENCODING 76
SWIDTH 667 0
DWIDTH 12 0
BBX 11 14 1 0
BITMAP
3C00
1800
1800
1800
1800
3000
3000
3000
3000
6020
6020
6040
60C0
FFC0
ENDCHAR
STARTCHAR M
ENCODING 77
SWIDTH 944 0
DWIDTH 18 0
BBX 17 14 1 0
BITMAP
3C0780
1C0700
1C0B00
1C0B00
1C1300
261600
262600
262600
264600
464C00
438C00
438C00
430C00
E31E00
ENDCHAR
STARTCHAR N
ENCODING 78
SWIDTH 815 0
DWIDTH 15 0
BBX 14 14 1 0
BITMAP
3C1C
1C08
1608
1608
1308
3318
2190
2190
20D0
60F0
4060
4060
4020
E020
ENDCHAR
STARTCHAR O
ENCODING 79
SWIDTH 778 0
DWIDTH 14 0
BBX 13 14 1 0
BITMAP
07C0
1830
3030
6018
6018
C018
C018
C018
C018
C030
C030
6060
60C0
1F00
ENDCHAR
STARTCHAR P
ENCODING 80
SWIDTH 667 0
DWIDTH 13 0
BBX 12 14 1 0
BITMAP
3FC0
1830
1830
1830
1830
3060
3F80
3000
3000
6000
6000
6000
6000
F000
ENDCHAR
STARTCHAR Q
ENCODING 81
SWIDTH 778 0
DWIDTH 14 0
BBX 13 17 1 -3
BITMAP
07C0
1830
3030
6018
6018
C018
C018
C018
C018
CE30
D330
6360
61C0
1F80
0190
01E0
00C0
ENDCHAR
STARTCHAR R
ENCODING 82
SWIDTH 741 0
DWIDTH 14 0
BBX 13 14 1 0
BITMAP
3FC0
1830
1830
1830
1830
3060
3F80
3180
30C0
60C0
60C0
60C0
60C8
F070
ENDCHAR
STARTCHAR S
ENCODING 83
SWIDTH 667 0
DWIDTH 12 0
BBX 11 14 1 0
BITMAP
07A0
1860
1040
2040
3000
3800
3F00
0FC0
01C0
00C0
4040
4080
E180
9E00
ENDCHAR
STARTCHAR T
ENCODING 84
SWIDTH 685 0
DWIDTH 12 0
BBX 12 14 1 0
BITMAP
FFF0
C630
8610
8610
0600
0C00
0C00
0C00
0C00
1800
1800
1800
1800
3C00
ENDCHAR
STARTCHAR U
ENCODING 85
SWIDTH 815 0
DWIDTH 15 0
BBX 13 14 2 0
BITMAP
7C38
3010
3010
3010
6020
6020
6020
6020
C020
C040
C040
C040
6080
3F00
ENDCHAR
STARTCHAR V
ENCODING 86
SWIDTH 704 0
DWIDTH 12 0
BBX 12 14 1 0
BITMAP
F070
6020
6040
6040
6080
3080
3100
3100
3200
1A00
1C00
1C00
1800
1800
ENDCHAR
STARTCHAR W
ENCODING 87
SWIDTH 926 0
DWIDTH 17 0
BBX 17 14 1 0
BITMAP
F1E380
60C100
60C100
61C200
61C200
316200
326400
326400
326400
1C3800
1C3800
1C3800
183000
183000
ENDCHAR
STARTCHAR X
ENCODING 88
SWIDTH 704 0
DWIDTH 13 0
BBX 14 14 0 0
BITMAP
1E3C
0C18
0C10
0620
0640
0380
0300
0380
0580
08C0
10C0
2060
6060
F0F0
ENDCHAR
STARTCHAR Y
ENCODING 89
SWIDTH 685 0
DWIDTH 14 0
BBX 13 14 2 0
BITMAP
F078
6030
3020
3040
1880
1900
0E00
0C00
0C00
1800
1800
1800
1800
3C00
ENDCHAR
STARTCHAR Z
ENCODING 90
SWIDTH 667 0
DWIDTH 13 0
BBX 12 14 1 0
BITMAP
3FF0
3070
60E0
41C0
0180
0300
0700
0E00
0C00
1800
3820
7060
E0C0
FFC0
ENDCHAR
STARTCHAR bracketleft
ENCODING 91
SWIDTH 333 0
DWIDTH 7 0
BBX 7 16 0 -2
BITMAP
1E
18
18
18
30
30
30
30
60
60
60
60
C0
C0
C0
F0
ENDCHAR
STARTCHAR backslash
ENCODING 92
SWIDTH 606 0
DWIDTH 10 0
BBX 7 14 1 0
BITMAP
80
80
40
40
20
20
10
10
08
08
04
04
02
02
ENDCHAR
STARTCHAR bracketright
ENCODING 93
SWIDTH 333 0
DWIDTH 8 0
BBX 7 16 0 -2
BITMAP
1E
06
06
06
0C
0C
0C
0C
18
18
18
18
30
30
30
F0
ENDCHAR
STARTCHAR asciicircum
ENCODING 94
SWIDTH 606 0
DWIDTH 8 0
BBX 7 8 1 6
BITMAP
10
10
38
28
6C
44
C6
82
ENDCHAR
STARTCHAR underscore
ENCODING 95
SWIDTH 500 0
DWIDTH 10 0
BBX 10 1 0 -3
BITMAP
FFC0
ENDCHAR
STARTCHAR grave
ENCODING 96
SWIDTH 333 0
DWIDTH 5 0
BBX 4 3 1 10
BITMAP
C0
60
10
ENDCHAR
STARTCHAR a
ENCODING 97
SWIDTH 574 0
DWIDTH 11 0
BBX 10 9 1 0
BITMAP
1D80
6380
6180
C180
C300
C300
C300
6740
3980
ENDCHAR
STARTCHAR b
ENCODING 98
SWIDTH 556 0
DWIDTH 11 0
BBX 9 14 1 0
BITMAP
7000
3000
3000
3000
6000
6E00
7300
6180
C180
C180
C180
C300
6300
3C00
ENDCHAR
STARTCHAR c
ENCODING 99
SWIDTH 444 0
DWIDTH 9 0
BBX 8 9 1 0
BITMAP
1E
63
63
C0
C0
C0
C1
62
3C
ENDCHAR
STARTCHAR d
ENCODING 100
SWIDTH 611 0
DWIDTH 11 0
BBX 10 14 1 0
BITMAP
01C0
00C0
00C0
00C0
0180
1D80
6380
6180
C180
C300
C300
C300
6740
3980
ENDCHAR
STARTCHAR e
ENCODING 101
SWIDTH 444 0
DWIDTH 9 0
BBX 8 9 1 0
BITMAP
1E
63
63
C6
CC
F0
C1
62
3C
ENDCHAR
STARTCHAR f
ENCODING 102
SWIDTH 333 0
DWIDTH 7 0
BBX 9 17 1 -3
BITMAP
0300
0D80
0980
1800
1800
FE00
3000
3000
3000
6000
6000
6000
6000
6000
C000
C000
C000
ENDCHAR
STARTCHAR g
ENCODING 103
SWIDTH 537 0
DWIDTH 9 0
BBX 11 15 -1 -4
BITMAP
0060
0080
0780
18C0
30C0
30C0
3180
1E00
2000
3F00
4180
C180
C100
E300
7E00
ENDCHAR
STARTCHAR h
ENCODING 104
SWIDTH 611 0
DWIDTH 11 0
BBX 10 14 1 0
BITMAP
7000
3000
3000
3000
3000
6700
6980
7180
6180
6180
C300
C300
C340
C180
ENDCHAR
STARTCHAR i
ENCODING 105
SWIDTH 333 0
DWIDTH 5 0
BBX 4 13 1 0
BITMAP
30
30
00
00
E0
60
60
60
60
C0
C0
D0
E0
ENDCHAR
STARTCHAR j
ENCODING 106
SWIDTH 315 0
DWIDTH 5 0
BBX 7 17 -2 -4
BITMAP
06
06
00
00
1C
0C
0C
0C
0C
0C
18
18
18
18
10
D0
E0
ENDCHAR
STARTCHAR k
ENCODING 107
SWIDTH 556 0
DWIDTH 11 0
BBX 9 14 1 0
BITMAP
7000
3000
3000
3000
3000
6700
6980
7180
6300
6C00
C600
C600
C680
C300
ENDCHAR
STARTCHAR l
ENCODING 108
SWIDTH 333 0
DWIDTH 5 0
BBX 4 14 1 0
BITMAP
70
30
30
30
30
60
60
60
60
C0
C0
C0
D0
E0
ENDCHAR
STARTCHAR m
ENCODING 109
SWIDTH 889 0
DWIDTH 17 0
BBX 16 9 1 0
BITMAP
E71C
69A6
71C6
6186
6186
C30C
C30C
C30D
C306
ENDCHAR
STARTCHAR n
ENCODING 110
SWIDTH 611 0
DWIDTH 11 0
BBX 10 9 1 0
BITMAP
E700
6980
7180
6180
6180
C300
C300
C340
C180
ENDCHAR
STARTCHAR o
ENCODING 111
SWIDTH 500 0
DWIDTH 11 0
BBX 9 9 1 0
BITMAP
1E00
6300
6180
C180
C180
C180
C300
6300
3C00
ENDCHAR
STARTCHAR p
ENCODING 112
SWIDTH 574 0
DWIDTH 11 0
BBX 11 13 -1 -4
BITMAP
3B80
1CC0
1860
1860
3060
3060
30C0
38C0
3700
6000
6000
6000
F000
ENDCHAR
STARTCHAR q
ENCODING 113
SWIDTH 556 0
DWIDTH 11 0
BBX 9 13 1 -4
BITMAP
1C80
6380
6180
C180
C300
C300
C300
6700
3B00
0600
0600
0600
0F00
ENDCHAR
STARTCHAR r
ENCODING 114
SWIDTH 444 0
DWIDTH 7 0
BBX 7 9 1 0
BITMAP
EE
76
60
60
60
C0
C0
C0
C0
ENDCHAR
STARTCHAR s
ENCODING 115
SWIDTH 444 0
DWIDTH 8 0
BBX 8 9 0 0
BITMAP
1E
23
63
70
3C
0E
C6
C4
78
ENDCHAR
STARTCHAR t
ENCODING 116
SWIDTH 352 0
DWIDTH 6 0
BBX 7 12 0 0
BITMAP
18
18
18
FE
30
30
30
60
60
60
68
70
ENDCHAR
STARTCHAR u
ENCODING 117
SWIDTH 611 0
DWIDTH 11 0
BBX 10 9 1 0
BITMAP
E180
6180
6180
6180
C300
C300
C700
CB40
7180
ENDCHAR
STARTCHAR v
ENCODING 118
SWIDTH 519 0
DWIDTH 10 0
BBX 8 9 1 0
BITMAP
E7
63
61
61
C1
C2
C2
C4
78
ENDCHAR
STARTCHAR w
ENCODING 119
SWIDTH 778 0
DWIDTH 15 0
BBX 13 9 1 0
BITMAP
E338
6318
6308
6308
C608
C610
C610
CA20
71C0
ENDCHAR
STARTCHAR x
ENCODING 120
SWIDTH 500 0
DWIDTH 11 0
BBX 11 9 0 0
BITMAP
1860
38C0
0D00
0E00
0400
0E00
1600
E380
C300
ENDCHAR
STARTCHAR y
ENCODING 121
SWIDTH 500 0
DWIDTH 9 0
BBX 10 12 -1 -3
BITMAP
30C0
7040
1880
1880
0D00
0D00
0600
0600
0400
0800
C800
F000
ENDCHAR
STARTCHAR z
ENCODING 122
SWIDTH 463 0
DWIDTH 9 0
BBX 9 9 0 0
BITMAP
3C80
4F80
0300
0600
0C00
1800
3000
7900
9E00
ENDCHAR
STARTCHAR braceleft
ENCODING 123
SWIDTH 333 0
DWIDTH 6 0
BBX 7 16 0 -2
BITMAP
0E
18
18
18
30
30
20
C0
60
60
60
C0
C0
C0
C0
70
ENDCHAR
STARTCHAR bar
ENCODING 124
SWIDTH 606 0
DWIDTH 10 0
BBX 1 14 4 0
BITMAP
80
80
80
80
80
80
80
80
80
80
80
80
80
80
ENDCHAR
STARTCHAR braceright
ENCODING 125
SWIDTH 333 0
DWIDTH 8 0
BBX 7 16 0 -2
BITMAP
1C
06
06
06
0C
0C
0C
06
08
18
18
18
30
30
30
E0
ENDCHAR
STARTCHAR asciitilde
ENCODING 126
SWIDTH 606 0
DWIDTH 9 0
BBX 8 2 1 5
BITMAP
71
8E
ENDCHAR
STARTCHAR space
ENCODING 160
SWIDTH 278 0
DWIDTH 5 0
BBX 1 1 0 0
BITMAP
00
ENDCHAR
STARTCHAR exclamdown
ENCODING 161
SWIDTH 333 0
DWIDTH 5 0
BBX 4 14 0 -4
BITMAP
30
30
00
00
20
20
20
20
60
60
40
C0
C0
C0
ENDCHAR
STARTCHAR cent
ENCODING 162
SWIDTH 556 0
DWIDTH 10 0
BBX 9 15 0 -3
BITMAP
0080
0080
0100
1F00
6380
6580
C400
C800
C800
D080
7100
3E00
2000
4000
4000
ENDCHAR
STARTCHAR sterling
ENCODING 163
SWIDTH 556 0
DWIDTH 11 0
BBX 10 14 1 0
BITMAP
0380
0CC0
08C0
1800
1800
1800
7F00
1800
1800
1800
1000
7040
9F80
E700
ENDCHAR
STARTCHAR currency
ENCODING 164
SWIDTH 606 0
DWIDTH 12 0
BBX 9 9 2 3
BITMAP
9C80
FF80
6300
C180
C180
C180
6300
FF80
9C80
ENDCHAR
STARTCHAR yen
ENCODING 165
SWIDTH 556 0
DWIDTH 13 0
BBX 13 14 1 0
BITMAP
F078
6030
3020
3040
1880
1900
0E00
7F80
0C00
1800
FF00
1800
1800
3C00
ENDCHAR
STARTCHAR brokenbar
ENCODING 166
SWIDTH 606 0
DWIDTH 10 0
BBX 1 14 4 0
BITMAP
80
80
80
80
80
80
00
00
80
80
80
80
80
80
ENDCHAR
STARTCHAR section
ENCODING 167
SWIDTH 500 0
DWIDTH 10 0
BBX 9 17 1 -3
BITMAP
0F00
1180
2180
3000
3800
3C00
4E00
4700
6300
7100
3900
1E00
0E00
0600
C200
C400
7800
ENDCHAR
STARTCHAR dieresis
ENCODING 168
SWIDTH 333 0
DWIDTH 7 0
BBX 6 2 1 10
BITMAP
CC
CC
ENDCHAR
STARTCHAR copyright
ENCODING 169
SWIDTH 747 0
DWIDTH 15 0
BBX 14 14 1 0
BITMAP
0780
1860
2010
47C8
4C48
8804
8804
8804
8804
4C48
4788
2010
1860
0780
ENDCHAR
STARTCHAR ordfeminine
ENCODING 170
SWIDTH 422 0
DWIDTH 8 0
BBX 7 8 1 6
BITMAP
3A
66
C4
8C
D8
6E
00
FE
ENDCHAR
STARTCHAR guillemotleft
ENCODING 171
SWIDTH 426 0
DWIDTH 8 0
BBX 8 6 0 0
BITMAP
09
36
6C
D8
48
24
ENDCHAR
STARTCHAR logicalnot
ENCODING 172
SWIDTH 606 0
DWIDTH 11 0
BBX 10 5 0 3
BITMAP
FFC0
0040
0040
0040
0040
ENDCHAR
STARTCHAR hyphen
ENCODING 173
SWIDTH 333 0
DWIDTH 6 0
BBX 5 1 0 5
BITMAP
F8
ENDCHAR
STARTCHAR registered
ENCODING 174
SWIDTH 747 0
DWIDTH 15 0
BBX 14 14 1 0
BITMAP
0780
1860
2010
5F88
48C8
88C4
8F84
8904
8984
4888
5CE8
2010
1860
0780
ENDCHAR
STARTCHAR macron
ENCODING 175
SWIDTH 333 0
DWIDTH 6 0
BBX 5 1 1 11
BITMAP
F8
ENDCHAR
STARTCHAR degree
ENCODING 176
SWIDTH 400 0
DWIDTH 7 0
BBX 6 6 1 8
BITMAP
78
CC
84
84
CC
78
ENDCHAR
STARTCHAR plusminus
ENCODING 177
SWIDTH 606 0
DWIDTH 10 0
BBX 9 9 0 1
BITMAP
0800
0800
0800
FF80
0800
0800
0800
0000
FF80
ENDCHAR
STARTCHAR twosuperior
ENCODING 178
SWIDTH 333 0
DWIDTH 6 0
BBX 6 8 0 6
BITMAP
78
CC
8C
18
30
60
C4
FC
ENDCHAR
STARTCHAR threesuperior
ENCODING 179
SWIDTH 333 0
DWIDTH 6 0
BBX 7 8 0 6
BITMAP
3C
66
46
1C
08
8C
CC
78
ENDCHAR
STARTCHAR acute
ENCODING 180
SWIDTH 333 0
DWIDTH 5 0
BBX 4 3 1 11
BITMAP
30
60
80
ENDCHAR
STARTCHAR mu
ENCODING 181
SWIDTH 611 0
DWIDTH 11 0
BBX 11 12 0 -3
BITMAP
70C0
30C0
30C0
30C0
6180
6180
6380
65A0
F8C0
C000
C000
C000
ENDCHAR
STARTCHAR paragraph
ENCODING 182
SWIDTH 650 0
DWIDTH 12 0
BBX 10 14 1 0
BITMAP
1FC0
6480
E480
C480
C480
E480
7C80
0900
0900
0900
0900
0900
0900
1F80
ENDCHAR
STARTCHAR periodcentered
ENCODING 183
SWIDTH 278 0
DWIDTH 5 0
BBX 2 2 2 5
BITMAP
C0
C0
ENDCHAR
STARTCHAR cedilla
ENCODING 184
SWIDTH 333 0
DWIDTH 6 0
BBX 3 4 1 -4
BITMAP
40
60
20
C0
ENDCHAR
STARTCHAR onesuperior
ENCODING 185
SWIDTH 333 0
DWIDTH 6 0
BBX 4 8 1 6
BITMAP
10
70
30
20
20
60
60
F0
ENDCHAR
STARTCHAR ordmasculine
ENCODING 186
SWIDTH 372 0
DWIDTH 8 0
BBX 7 8 1 6
BITMAP
1C
66
C2
86
CC
70
00
FC
ENDCHAR
STARTCHAR guillemotright
ENCODING 187
SWIDTH 426 0
DWIDTH 9 0
BBX 8 6 0 0
BITMAP
24
12
1B
36
6C
90
ENDCHAR
STARTCHAR onequarter
ENCODING 188
SWIDTH 834 0
DWIDTH 15 0
BBX 13 14 1 0
BITMAP
1040
7040
3080
2080
2100
6100
6230
F270
04B0
0520
0A20
0BF8
1060
10F0
ENDCHAR
STARTCHAR onehalf
ENCODING 189
SWIDTH 834 0
DWIDTH 15 0
BBX 14 14 1 0
BITMAP
1040
7040
3080
2080
2100
6100
6278
F2CC
048C
0418
0830
0860
10C4
10FC
ENDCHAR
STARTCHAR threequarters
ENCODING 190
SWIDTH 834 0
DWIDTH 15 0
BBX 14 14 0 0
BITMAP
3C20
6620
4640
1C40
0880
8C80
CD18
7938
0258
0290
0510
05FC
0830
0878
ENDCHAR
STARTCHAR questiondown
ENCODING 191
SWIDTH 444 0
DWIDTH 8 0
BBX 7 14 0 -4
BITMAP
06
06
00
00
0C
12
06
0C
30
60
C0
C4
C4
78
ENDCHAR
STARTCHAR Agrave
ENCODING 192
SWIDTH 704 0
DWIDTH 13 0
BBX 12 18 0 0
BITMAP
0600
0300
0080
0000
0100
0300
0380
0580
0580
08C0
08C0
10C0
1FC0
2060
2060
4060
4060
E0F0
ENDCHAR
STARTCHAR Aacute
ENCODING 193
SWIDTH 704 0
DWIDTH 13 0
BBX 12 18 0 0
BITMAP
00C0
0180
0200
0000
0100
0300
0380
0580
0580
08C0
08C0
10C0
1FC0
2060
2060
4060
4060
E0F0
ENDCHAR
STARTCHAR Acircumflex
ENCODING 194
SWIDTH 704 0
DWIDTH 13 0
BBX 12 18 0 0
BITMAP
0180
03C0
0440
0000
0100
0300
0380
0580
0580
08C0
08C0
10C0
1FC0
2060
2060
4060
4060
E0F0
ENDCHAR
STARTCHAR Atilde
ENCODING 195
SWIDTH 704 0
DWIDTH 13 0
BBX 12 17 0 0
BITMAP
0740
0B80
0000
0100
0300
0380
0580
0580
08C0
08C0
10C0
1FC0
2060
2060
4060
4060
E0F0
ENDCHAR
STARTCHAR Adieresis
ENCODING 196
SWIDTH 704 0
DWIDTH 13 0
BBX 12 17 0 0
BITMAP
0660
0660
0000
0100
0300
0380
0580
0580
08C0
08C0
10C0
1FC0
2060
2060
4060
4060
E0F0
ENDCHAR
STARTCHAR Aring
ENCODING 197
SWIDTH 704 0
DWIDTH 13 0
BBX 12 18 0 0
BITMAP
0300
0480
0480
0300
0100
0300
0380
0580
0580
08C0
08C0
10C0
1FC0
2060
2060
4060
4060
E0F0
ENDCHAR
STARTCHAR AE
ENCODING 198
SWIDTH 870 0
DWIDTH 19 0
BBX 20 14 -1 0
BITMAP
01FFF0
005830
009810
009810
011880
023080
023F00
043300
0FF100
086110
106010
206020
606060
F0FFE0
ENDCHAR
STARTCHAR Ccedilla
ENCODING 199
SWIDTH 722 0
DWIDTH 13 0
BBX 12 18 1 -4
BITMAP
07D0
1830
3020
6020
6020
C000
C000
C000
C000
C000
C000
6020
60C0
1F00
0400
0600
0200
0C00
ENDCHAR
STARTCHAR Egrave
ENCODING 200
SWIDTH 722 0
DWIDTH 13 0
BBX 12 18 1 0
BITMAP
0600
0300
0080
0000
3FF0
1830
1810
1810
1880
3080
3F00
3300
3100
6120
6020
6040
60C0
FFC0
ENDCHAR
STARTCHAR Eacute
ENCODING 201
SWIDTH 722 0
DWIDTH 13 0
BBX 12 18 1 0
BITMAP
00C0
0180
0200
0000
3FF0
1830
1810
1810
1880
3080
3F00
3300
3100
6120
6020
6040
60C0
FFC0
ENDCHAR
STARTCHAR Ecircumflex
ENCODING 202
SWIDTH 722 0
DWIDTH 13 0
BBX 12 18 1 0
BITMAP
0180
03C0
0440
0000
3FF0
1830
1810
1810
1880
3080
3F00
3300
3100
6120
6020
6040
60C0
FFC0
ENDCHAR
STARTCHAR Edieresis
ENCODING 203
SWIDTH 722 0
DWIDTH 13 0
BBX 12 17 1 0
BITMAP
0660
0660
0000
3FF0
1830
1810
1810
1880
3080
3F00
3300
3100
6120
6020
6040
60C0
FFC0
ENDCHAR
STARTCHAR Igrave
ENCODING 204
SWIDTH 407 0
DWIDTH 9 0
BBX 6 18 2 0
BITMAP
60
30
08
00
3C
18
18
18
18
30
30
30
30
60
60
60
60
F0
ENDCHAR
STARTCHAR Iacute
ENCODING 205
SWIDTH 407 0
DWIDTH 9 0
BBX 7 18 2 0
BITMAP
06
0C
10
00
3C
18
18
18
18
30
30
30
30
60
60
60
60
F0
ENDCHAR
STARTCHAR Icircumflex
ENCODING 206
SWIDTH 407 0
DWIDTH 9 0
BBX 7 18 2 0
BITMAP
0C
1E
22
00
18
18
18
18
18
30
30
30
30
60
60
60
60
F0
ENDCHAR
STARTCHAR Idieresis
ENCODING 207
SWIDTH 407 0
DWIDTH 9 0
BBX 8 17 2 0
BITMAP
33
33
00
3C
18
18
18
18
30
30
30
30
60
60
60
60
F0
ENDCHAR
STARTCHAR Eth
ENCODING 208
SWIDTH 778 0
DWIDTH 15 0
BBX 13 14 1 0
BITMAP
3FE0
1830
1818
1818
1818
3018
FE18
3018
3030
6030
6030
6060
60C0
FF00
ENDCHAR
STARTCHAR Ntilde
ENCODING 209
SWIDTH 815 0
DWIDTH 15 0
BBX 14 17 1 0
BITMAP
01D0
02E0
0000
3C1C
1C08
1608
1608
1308
3318
2190
2190
20D0
60F0
4060
4060
4020
E020
ENDCHAR
STARTCHAR Ograve
ENCODING 210
SWIDTH 778 0
DWIDTH 14 0
BBX 13 18 1 0
BITMAP
0C00
0600
0100
0000
07C0
1830
3030
6018
6018
C018
C018
C018
C018
C030
C030
6060
60C0
1F00
ENDCHAR
STARTCHAR Oacute
ENCODING 211
SWIDTH 778 0
DWIDTH 14 0
BBX 13 18 1 0
BITMAP
00C0
0180
0200
0000
07C0
1830
3030
6018
6018
C018
C018
C018
C018
C030
C030
6060
60C0
1F00
ENDCHAR
STARTCHAR Ocircumflex
ENCODING 212
SWIDTH 778 0
DWIDTH 14 0
BBX 13 18 1 0
BITMAP
0180
03C0
0440
0000
07C0
1830
3030
6018
6018
C018
C018
C018
C018
C030
C030
6060
60C0
1F00
ENDCHAR
STARTCHAR Otilde
ENCODING 213
SWIDTH 778 0
DWIDTH 14 0
BBX 13 17 1 0
BITMAP
03A0
05C0
0000
07C0
1830
3030
6018
6018
C018
C018
C018
C018
C030
C030
6060
60C0
1F00
ENDCHAR
STARTCHAR Odieresis
ENCODING 214
SWIDTH 778 0
DWIDTH 14 0
BBX 13 17 1 0
BITMAP
0660
0660
0000
07C0
1830
3030
6018
6018
C018
C018
C018
C018
C030
C030
6060
60C0
1F00
ENDCHAR
STARTCHAR multiply
ENCODING 215
SWIDTH 606 0
DWIDTH 10 0
BBX 10 9 0 0
BITMAP
C0C0
6180
3300
1E00
0C00
1E00
3300
6180
C0C0
ENDCHAR
STARTCHAR Oslash
ENCODING 216
SWIDTH 778 0
DWIDTH 14 0
BBX 15 15 0 -1
BITMAP
03E2
0C1C
1818
301C
302C
604C
608C
610C
620C
6418
6818
3030
3060
4F80
8000
ENDCHAR
STARTCHAR Ugrave
ENCODING 217
SWIDTH 815 0
DWIDTH 15 0
BBX 13 18 2 0
BITMAP
0600
0300
0080
0000
7C38
3010
3010
3010
6020
6020
6020
6020
C020
C040
C040
C040
6080
3F00
ENDCHAR
STARTCHAR Uacute
ENCODING 218
SWIDTH 815 0
DWIDTH 15 0
BBX 13 18 2 0
BITMAP
00C0
0180
0200
0000
7C38
3010
3010
3010
6020
6020
6020
6020
C020
C040
C040
C040
6080
3F00
ENDCHAR
STARTCHAR Ucircumflex
ENCODING 219
SWIDTH 815 0
DWIDTH 15 0
BBX 13 18 2 0
BITMAP
0180
03C0
0440
0000
7C38
3010
3010
3010
6020
6020
6020
6020
C020
C040
C040
C040
6080
3F00
ENDCHAR
STARTCHAR Udieresis
ENCODING 220
SWIDTH 815 0
DWIDTH 15 0
BBX 13 17 2 0
BITMAP
0660
0660
0000
7C38
3010
3010
3010
6020
6020
6020
6020
C020
C040
C040
C040
6080
3F00
ENDCHAR
STARTCHAR Yacute
ENCODING 221
SWIDTH 685 0
DWIDTH 14 0
BBX 13 18 2 0
BITMAP
00C0
0180
0200
0000
F078
6030
3020
3040
1880
1900
0E00
0C00
0C00
1800
1800
1800
1800
3C00
ENDCHAR
STARTCHAR Thorn
ENCODING 222
SWIDTH 667 0
DWIDTH 13 0
BBX 11 14 1 0
BITMAP
3C00
1800
1800
1F80
1860
3060
3060
3060
30C0
7F00
6000
6000
6000
F000
ENDCHAR
STARTCHAR germandbls
ENCODING 223
SWIDTH 556 0
DWIDTH 10 0
BBX 9 17 0 -3
BITMAP
0E00
1100
3180
3180
3180
3100
3600
6100
6180
6180
6180
6180
6B00
CE00
C000
C000
C000
ENDCHAR
STARTCHAR agrave
ENCODING 224
SWIDTH 574 0
DWIDTH 11 0
BBX 10 13 1 0
BITMAP
1800
0C00
0200
0000
1D80
6380
6180
C180
C300
C300
C300
6740
3980
ENDCHAR
STARTCHAR aacute
ENCODING 225
SWIDTH 574 0
DWIDTH 11 0
BBX 10 13 1 0
BITMAP
0300
0600
0800
0000
1D80
6380
6180
C180
C300
C300
C300
6740
3980
ENDCHAR
STARTCHAR acircumflex
ENCODING 226
SWIDTH 574 0
DWIDTH 11 0
BBX 10 13 1 0
BITMAP
0200
0700
0900
0000
1D80
6380
6180
C180
C300
C300
C300
6740
3980
ENDCHAR
STARTCHAR atilde
ENCODING 227
SWIDTH 574 0
DWIDTH 11 0
BBX 10 12 1 0
BITMAP
0E80
1700
0000
1D80
6380
6180
C180
C300
C300
C300
6740
3980
ENDCHAR
STARTCHAR adieresis
ENCODING 228
SWIDTH 574 0
DWIDTH 11 0
BBX 10 12 1 0
BITMAP
1980
1980
0000
1D80
6380
6180
C180
C300
C300
C300
6740
3980
ENDCHAR
STARTCHAR aring
ENCODING 229
SWIDTH 574 0
DWIDTH 11 0
BBX 10 14 1 0
BITMAP
0600
0900
0900
0600
0000
1D80
6380
6180
C180
C300
C300
C300
6740
3980
ENDCHAR
STARTCHAR ae
ENCODING 230
SWIDTH 722 0
DWIDTH 15 0
BBX 13 9 1 0
BITMAP
1CF0
6318
6318
0630
1E60
6780
C608
CB10
71E0
ENDCHAR
STARTCHAR ccedilla
ENCODING 231
SWIDTH 444 0
DWIDTH 9 0
BBX 8 13 1 -4
BITMAP
1E
63
63
C0
C0
C0
C1
62
3C
10
18
08
30
ENDCHAR
STARTCHAR egrave
ENCODING 232
SWIDTH 444 0
DWIDTH 9 0
BBX 8 13 1 0
BITMAP
30
18
04
00
1E
63
63
C6
CC
F0
C1
62
3C
ENDCHAR
STARTCHAR eacute
ENCODING 233
SWIDTH 444 0
DWIDTH 9 0
BBX 8 13 1 0
BITMAP
06
0C
10
00
1E
63
63
C6
CC
F0
C1
62
3C
ENDCHAR
STARTCHAR ecircumflex
ENCODING 234
SWIDTH 444 0
DWIDTH 9 0
BBX 8 13 1 0
BITMAP
04
0E
12
00
1E
63
63
C6
CC
F0
C1
62
3C
ENDCHAR
STARTCHAR edieresis
ENCODING 235
SWIDTH 444 0
DWIDTH 9 0
BBX 8 12 1 0
BITMAP
33
33
00
1E
63
63
C6
CC
F0
C1
62
3C
ENDCHAR
STARTCHAR igrave
ENCODING 236
SWIDTH 333 0
DWIDTH 5 0
BBX 4 13 1 0
BITMAP
C0
60
10
00
E0
60
60
60
C0
C0
C0
D0
E0
ENDCHAR
STARTCHAR iacute
ENCODING 237
SWIDTH 333 0
DWIDTH 5 0
BBX 5 13 1 0
BITMAP
18
30
40
00
E0
60
60
60
C0
C0
C0
D0
E0
ENDCHAR
STARTCHAR icircumflex
ENCODING 238
SWIDTH 333 0
DWIDTH 5 0
BBX 4 13 1 0
BITMAP
20
70
90
00
E0
60
60
60
C0
C0
C0
D0
E0
ENDCHAR
STARTCHAR idieresis
ENCODING 239
SWIDTH 333 0
DWIDTH 5 0
BBX 5 12 1 0
BITMAP
D8
D8
00
E0
60
60
60
C0
C0
C0
D0
E0
ENDCHAR
STARTCHAR eth
ENCODING 240
SWIDTH 500 0
DWIDTH 11 0
BBX 9 13 1 0
BITMAP
7300
1C00
6C00
0600
1F00
6300
6180
C180
C180
C180
C300
6300
3C00
ENDCHAR
STARTCHAR ntilde
ENCODING 241
SWIDTH 611 0
DWIDTH 11 0
BBX 10 12 1 0
BITMAP
1D00
2E00
0000
E700
6980
7180
6180
6180
C300
C300
C340
C180
ENDCHAR
STARTCHAR ograve
ENCODING 242
SWIDTH 500 0
DWIDTH 11 0
BBX 9 13 1 0
BITMAP
3000
1800
0400
0000
1E00
6300
6180
C180
C180
C180
C300
6300
3C00
ENDCHAR
STARTCHAR oacute
ENCODING 243
SWIDTH 500 0
DWIDTH 11 0
BBX 9 13 1 0
BITMAP
0300
0600
0800
0000
1E00
6300
6180
C180
C180
C180
C300
6300
3C00
ENDCHAR
STARTCHAR ocircumflex
ENCODING 244
SWIDTH 500 0
DWIDTH 11 0
BBX 9 13 1 0
BITMAP
0400
0E00
1200
0000
1E00
6300
6180
C180
C180
C180
C300
6300
3C00
ENDCHAR
STARTCHAR otilde
ENCODING 245
SWIDTH 500 0
DWIDTH 11 0
BBX 9 12 1 0
BITMAP
0E80
1700
0000
1E00
6300
6180
C180
C180
C180
C300
6300
3C00
ENDCHAR
STARTCHAR odieresis
ENCODING 246
SWIDTH 500 0
DWIDTH 11 0
BBX 9 12 1 0
BITMAP
1B00
1B00
0000
1E00
6300
6180
C180
C180
C180
C300
6300
3C00
ENDCHAR
STARTCHAR divide
ENCODING 247
SWIDTH 606 0
DWIDTH 10 0
BBX 8 7 1 2
BITMAP
18
18
00
FF
00
18
18
ENDCHAR
STARTCHAR oslash
ENCODING 248
SWIDTH 500 0
DWIDTH 11 0
BBX 9 11 1 -1
BITMAP
0200
1E00
6700
6580
C980
C980
D180
D300
6300
3C00
2000
ENDCHAR
STARTCHAR ugrave
ENCODING 249
SWIDTH 611 0
DWIDTH 11 0
BBX 10 13 1 0
BITMAP
3000
1800
0400
0000
E180
6180
6180
6180
C300
C300
C700
CB40
7180
ENDCHAR
STARTCHAR uacute
ENCODING 250
SWIDTH 611 0
DWIDTH 11 0
BBX 10 13 1 0
BITMAP
0300
0600
0800
0000
E180
6180
6180
6180
C300
C300
C700
CB40
7180
ENDCHAR
STARTCHAR ucircumflex
ENCODING 251
SWIDTH 611 0
DWIDTH 11 0
BBX 10 13 1 0
BITMAP
0400
0E00
1200
0000
E180
6180
6180
6180
C300
C300
C700
CB40
7180
ENDCHAR
STARTCHAR udieresis
ENCODING 252
SWIDTH 611 0
DWIDTH 11 0
BBX 10 12 1 0
BITMAP
1B00
1B00
0000
E180
6180
6180
6180
C300
C300
C700
CB40
7180
ENDCHAR
STARTCHAR yacute
ENCODING 253
SWIDTH 500 0
DWIDTH 9 0
BBX 10 16 -1 -3
BITMAP
0180
0300
0400
0000
30C0
7040
1880
1880
0D00
0D00
0600
0600
0400
0800
C800
F000
ENDCHAR
STARTCHAR thorn
ENCODING 254
SWIDTH 574 0
DWIDTH 11 0
BBX 11 18 -1 -4
BITMAP
1C00
0C00
0C00
0C00
1800
1B80
1CC0
1860
1860
3060
3060
30C0
38C0
6700
6000
6000
6000
F000
ENDCHAR
STARTCHAR ydieresis
ENCODING 255
SWIDTH 500 0
DWIDTH 9 0
BBX 10 15 -1 -3
BITMAP
1980
1980
0000
30C0
7040
1880
1880
0D00
0D00
0600
0600
0400
0800
C800
F000
ENDCHAR
STARTCHAR Amacron
ENCODING 256
SWIDTH 704 0
DWIDTH 13 0
BBX 12 16 0 0
BITMAP
0F80
0000
0100
0300
0380
0580
0580
08C0
08C0
10C0
1FC0
2060
2060
4060
4060
E0F0
ENDCHAR
STARTCHAR amacron
ENCODING 257
SWIDTH 574 0
DWIDTH 11 0
BBX 10 11 1 0
BITMAP
1F00
0000
1D80
6380
6180
C180
C300
C300
C300
6740
3980
ENDCHAR
STARTCHAR Abreve
ENCODING 258
SWIDTH 704 0
DWIDTH 13 0
BBX 12 18 0 0
BITMAP
0880
0D80
0700
0000
0100
0300
0380
0580
0580
08C0
08C0
10C0
1FC0
2060
2060
4060
4060
E0F0
ENDCHAR
STARTCHAR abreve
ENCODING 259
SWIDTH 574 0
DWIDTH 11 0
BBX 10 13 1 0
BITMAP
1100
1B00
0E00
0000
1D80
6380
6180
C180
C300
C300
C300
6740
3980
ENDCHAR
STARTCHAR Aogonek
ENCODING 260
SWIDTH 704 0
DWIDTH 13 0
BBX 12 18 0 -4
BITMAP
0100
0300
0380
0580
0580
08C0
08C0
10C0
1FC0
2060
2060
4060
4060
E0F0
0200
0400
0480
0700
ENDCHAR
STARTCHAR aogonek
ENCODING 261
SWIDTH 574 0
DWIDTH 11 0
BBX 10 13 1 -4
BITMAP
1D80
6380
6180
C180
C300
C300
C300
6740
3980
0400
0800
0900
0E00
ENDCHAR
STARTCHAR Cacute
ENCODING 262
SWIDTH 722 0
DWIDTH 13 0
BBX 12 18 1 0
BITMAP
00C0
0180
0200
0000
07D0
1830
3020
6020
6020
C000
C000
C000
C000
C020
C020
6040
60C0
1F00
ENDCHAR
STARTCHAR cacute
ENCODING 263
SWIDTH 444 0
DWIDTH 9 0
BBX 8 13 1 0
BITMAP
06
0C
10
00
1E
63
63
C0
C0
C0
C1
62
3C
ENDCHAR
STARTCHAR Ccircumflex
ENCODING 264
SWIDTH 722 0
DWIDTH 13 0
BBX 12 18 1 0
BITMAP
0300
0780
0880
0000
07D0
1830
3020
6020
6020
C000
C000
C000
C000
C020
C020
6040
60C0
1F00
ENDCHAR
STARTCHAR ccircumflex
ENCODING 265
SWIDTH 444 0
DWIDTH 9 0
BBX 8 13 1 0
BITMAP
0C
1E
22
00
1E
63
63
C0
C0
C0
C1
62
3C
ENDCHAR
STARTCHAR Cdotaccent
ENCODING 266
SWIDTH 722 0
DWIDTH 13 0
BBX 12 17 1 0
BITMAP
0300
0300
0000
07D0
1830
3020
6020
6020
C000
C000
C000
C000
C020
C020
6040
60C0
1F00
ENDCHAR
STARTCHAR cdotaccent
ENCODING 267
SWIDTH 444 0
DWIDTH 9 0
BBX 8 12 1 0
BITMAP
18
18
00
1E
63
63
C0
C0
C0
C1
62
3C
ENDCHAR
STARTCHAR Ccaron
ENCODING 268
SWIDTH 722 0
DWIDTH 13 0
BBX 12 19 1 0
BITMAP
0440
0480
0300
0200
0000
07D0
1830
3020
6020
6020
C000
C000
C000
C000
C020
C020
6040
60C0
1F00
ENDCHAR
STARTCHAR ccaron
ENCODING 269
SWIDTH 444 0
DWIDTH 9 0
BBX 8 14 1 0
BITMAP
22
24
18
10
00
1E
63
63
C0
C0
C0
C1
62
3C
ENDCHAR
STARTCHAR Dcaron
ENCODING 270
SWIDTH 778 0
DWIDTH 15 0
BBX 13 19 1 0
BITMAP
0440
0480
0300
0200
0000
3FE0
1830
1818
1818
1818
3018
3018
3018
3030
6030
6030
6060
60C0
FF00
ENDCHAR
STARTCHAR dcaron
ENCODING 271
SWIDTH 784 0
DWIDTH 15 0
BBX 13 14 1 0
BITMAP
01D8
00D8
00C8
00D0
01A0
1D80
6380
6180
C180
C300
C300
C300
6740
3980
ENDCHAR
STARTCHAR Dcroat
ENCODING 272
SWIDTH 778 0
DWIDTH 15 0
BBX 13 14 1 0
BITMAP
3FE0
1830
1818
1818
1818
3018
FE18
3018
3030
6030
6030
6060
60C0
FF00
ENDCHAR
STARTCHAR dcroat
ENCODING 273
SWIDTH 611 0
DWIDTH 11 0
BBX 10 14 1 0
BITMAP
01C0
00C0
00C0
0FC0
0180
1D80
6380
6180
C180
C300
C300
C300
6740
3980
ENDCHAR
STARTCHAR Emacron
ENCODING 274
SWIDTH 722 0
DWIDTH 13 0
BBX 12 16 1 0
BITMAP
0F80
0000
3FF0
1830
1810
1810
1880
3080
3F00
3300
3100
6120
6020
6040
60C0
FFC0
ENDCHAR
STARTCHAR emacron
ENCODING 275
SWIDTH 444 0
DWIDTH 9 0
BBX 8 11 1 0
BITMAP
3E
00
1E
63
63
C6
CC
F0
C1
62
3C
ENDCHAR
STARTCHAR Ebreve
ENCODING 276
SWIDTH 722 0
DWIDTH 13 0
BBX 12 18 1 0
BITMAP
0880
0D80
0700
0000
3FF0
1830
1810
1810
1880
3080
3F00
3300
3100
6120
6020
6040
60C0
FFC0
ENDCHAR
STARTCHAR ebreve
ENCODING 277
SWIDTH 444 0
DWIDTH 9 0
BBX 8 13 1 0
BITMAP
22
36
1C
00
1E
63
63
C6
CC
F0
C1
62
3C
ENDCHAR
STARTCHAR Edotaccent
ENCODING 278
SWIDTH 722 0
DWIDTH 13 0
BBX 12 17 1 0
BITMAP
0300
0300
0000
3FF0
1830
1810
1810
1880
3080
3F00
3300
3100
6120
6020
6040
60C0
FFC0
ENDCHAR
STARTCHAR edotaccent
ENCODING 279
SWIDTH 444 0
DWIDTH 9 0
BBX 8 12 1 0
BITMAP
18
18
00
1E
63
63
C6
CC
F0
C1
62
3C
ENDCHAR
STARTCHAR Eogonek
ENCODING 280
SWIDTH 722 0
DWIDTH 13 0
BBX 12 18 1 -4
BITMAP
3FF0
1830
1810
1810
1880
3080
3F00
3300
3100
6120
6020
6040
60C0
FFC0
0400
0800
0900
0E00
ENDCHAR
STARTCHAR eogonek
ENCODING 281
SWIDTH 444 0
DWIDTH 9 0
BBX 8 13 1 -4
BITMAP
1E
63
63
C6
CC
F0
C1
62
3C
10
20
24
38
ENDCHAR
STARTCHAR Ecaron
ENCODING 282
SWIDTH 722 0
DWIDTH 13 0
BBX 12 19 1 0
BITMAP
0440
0480
0300
0200
0000
3FF0
1830
1810
1810
1880
3080
3F00
3300
3100
6120
6020
6040
60C0
FFC0
ENDCHAR
STARTCHAR ecaron
ENCODING 283
SWIDTH 444 0
DWIDTH 9 0
BBX 8 14 1 0
BITMAP
22
24
18
10
00
1E
63
63
C6
CC
F0
C1
62
3C
ENDCHAR
STARTCHAR Gcircumflex
ENCODING 284
SWIDTH 778 0
DWIDTH 14 0
BBX 13 18 1 0
BITMAP
0180
03C0
0440
0000
07C8
1838
3010
6010
6010
C000
C000
C0F8
C030
C030
C060
6060
60E0
1F20
ENDCHAR
STARTCHAR gcircumflex
ENCODING 285
SWIDTH 537 0
DWIDTH 9 0
BBX 11 19 -1 -4
BITMAP
0300
0780
0880
0000
0060
0080
0780
18C0
30C0
30C0
3180
1E00
2000
3F00
4180
C180
C100
E300
7E00
ENDCHAR
STARTCHAR Gbreve
ENCODING 286
SWIDTH 778 0
DWIDTH 14 0
BBX 13 18 1 0
BITMAP
0440
06C0
0380
0000
07C8
1838
3010
6010
6010
C000
C000
C0F8
C030
C030
C060
6060
60E0
1F20
ENDCHAR
STARTCHAR gbreve
ENCODING 287
SWIDTH 537 0
DWIDTH 9 0
BBX 11 19 -1 -4
BITMAP
0880
0D80
0700
0000
0060
0080
0780
18C0
30C0
30C0
3180
1E00
2000
3F00
4180
C180
C100
E300
7E00
ENDCHAR
STARTCHAR Gdotaccent
ENCODING 288
SWIDTH 778 0
DWIDTH 14 0
BBX 13 17 1 0
BITMAP
0300
0300
0000
07C8
1838
3010
6010
6010
C000
C000
C0F8
C030
C030
C060
6060
60E0
1F20
ENDCHAR
STARTCHAR gdotaccent
ENCODING 289
SWIDTH 537 0
DWIDTH 9 0
BBX 11 18 -1 -4
BITMAP
0300
0300
0000
0060
0080
0780
18C0
30C0
30C0
3180
1E00
2000
3F00
4180
C180
C100
E300
7E00
ENDCHAR
STARTCHAR Gcommaaccent
ENCODING 290
SWIDTH 778 0
DWIDTH 14 0
BBX 13 20 1 -6
BITMAP
07C8
1838
3010
6010
6010
C000
C000
C0F8
C030
C030
C060
6060
60E0
1F20
0000
0600
0600
0200
0400
0800
ENDCHAR
STARTCHAR gcommaaccent
ENCODING 291
SWIDTH 537 0
DWIDTH 9 0
BBX 11 21 -1 -4
BITMAP
0080
0100
0200
0300
0300
0000
0060
0080
0780
18C0
30C0
30C0
3180
1E00
2000
3F00
4180
C180
C100
E300
7E00
ENDCHAR
STARTCHAR Hcircumflex
ENCODING 292
SWIDTH 833 0
DWIDTH 15 0
BBX 14 18 1 0
BITMAP
0180
03C0
0440
0000
3C3C
1818
1818
1818
1818
3030
3FF0
3030
3030
6060
6060
6060
6060
F0F0
ENDCHAR
STARTCHAR hcircumflex
ENCODING 293
SWIDTH 611 0
DWIDTH 11 0
BBX 10 18 1 0
BITMAP
1800
3C00
4400
0000
7000
3000
3000
3000
3000
6700
6980
7180
6180
6180
C300
C300
C340
C180
ENDCHAR
STARTCHAR Hbar
ENCODING 294
SWIDTH 833 0
DWIDTH 15 0
BBX 14 14 1 0
BITMAP
3C3C
1818
1818
1818
FFFC
3030
3FF0
3030
3030
6060
6060
6060
6060
F0F0
ENDCHAR
STARTCHAR hbar
ENCODING 295
SWIDTH 611 0
DWIDTH 11 0
BBX 10 14 1 0
BITMAP
7000
3000
3000
FC00
3000
6700
6980
7180
6180
6180
C300
C300
C340
C180
ENDCHAR
STARTCHAR Itilde
ENCODING 296
SWIDTH 407 0
DWIDTH 8 0
BBX 7 17 2 0
BITMAP
3A
5C
00
3C
18
18
18
18
30
30
30
30
60
60
60
60
F0
ENDCHAR
STARTCHAR itilde
ENCODING 297
SWIDTH 333 0
DWIDTH 5 0
BBX 6 12 0 0
BITMAP
74
B8
00
70
30
30
30
60
60
60
68
70
ENDCHAR
STARTCHAR Imacron
ENCODING 298
SWIDTH 407 0
DWIDTH 8 0
BBX 6 16 2 0
BITMAP
7C
00
3C
18
18
18
18
30
30
30
30
60
60
60
60
F0
ENDCHAR
STARTCHAR imacron
ENCODING 299
SWIDTH 333 0
DWIDTH 5 0
BBX 5 11 0 0
BITMAP
F8
00
70
30
30
30
60
60
60
68
70
ENDCHAR
STARTCHAR Ibreve
ENCODING 300
SWIDTH 407 0
DWIDTH 8 0
BBX 6 18 2 0
BITMAP
44
6C
38
00
3C
18
18
18
18
30
30
30
30
60
60
60
60
F0
ENDCHAR
STARTCHAR ibreve
ENCODING 301
SWIDTH 333 0
DWIDTH 5 0
BBX 5 13 0 0
BITMAP
88
D8
70
00
70
30
30
30
60
60
60
68
70
ENDCHAR
STARTCHAR Iogonek
ENCODING 302
SWIDTH 407 0
DWIDTH 8 0
BBX 6 18 2 -4
BITMAP
3C
18
18
18
18
30
30
30
30
60
60
60
60
F0
20
40
48
70
ENDCHAR
STARTCHAR iogonek
ENCODING 303
SWIDTH 333 0
DWIDTH 5 0
BBX 4 17 1 -4
BITMAP
30
30
00
00
E0
60
60
60
60
C0
C0
D0
E0
40
80
90
E0
ENDCHAR
STARTCHAR Idotaccent
ENCODING 304
SWIDTH 407 0
DWIDTH 8 0
BBX 6 17 2 0
BITMAP
18
18
00
3C
18
18
18
18
30
30
30
30
60
60
60
60
F0
ENDCHAR
STARTCHAR dotlessi
ENCODING 305
SWIDTH 333 0
DWIDTH 5 0
BBX 4 9 1 0
BITMAP
E0
60
60
60
C0
C0
C0
D0
E0
ENDCHAR
STARTCHAR IJ
ENCODING 306
SWIDTH 998 0
DWIDTH 18 0
BBX 16 14 2 0
BITMAP
3C0F
1806
1806
1806
180C
300C
300C
300C
3018
6018
6318
6310
6230
F1C0
ENDCHAR
STARTCHAR ij
ENCODING 307
SWIDTH 631 0
DWIDTH 10 0
BBX 9 17 1 -4
BITMAP
3180
3180
0000
0000
E700
6300
6300
6300
6300
C300
C600
D600
E600
0600
0400
3400
3800
ENDCHAR
STARTCHAR Jcircumflex
ENCODING 308
SWIDTH 611 0
DWIDTH 10 0
BBX 10 18 0 0
BITMAP
0180
03C0
0440
0000
03C0
0180
0180
0180
0300
0300
0300
0300
0600
0600
C600
C400
8C00
7000
ENDCHAR
STARTCHAR jcircumflex
ENCODING 309
SWIDTH 315 0
DWIDTH 5 0
BBX 7 17 -2 -4
BITMAP
0C
1E
22
00
1C
0C
0C
0C
0C
0C
18
18
18
18
10
D0
E0
ENDCHAR
STARTCHAR Kcommaaccent
ENCODING 310
SWIDTH 741 0
DWIDTH 14 0
BBX 13 20 1 -6
BITMAP
3C38
1820
1840
1880
1900
3200
3700
3B00
3180
6180
60C0
60C0
6060
F0F8
0000
0600
0600
0200
0400
0800
ENDCHAR
STARTCHAR kcommaaccent
ENCODING 311
SWIDTH 556 0
DWIDTH 11 0
BBX 9 20 1 -6
BITMAP
7000
3000
3000
3000
3000
6700
6980
7180
6300
6C00
C600
C600
C680
C300
0000
1800
1800
0800
1000
2000
ENDCHAR
STARTCHAR kgreenlandic
ENCODING 312
SWIDTH 556 0
DWIDTH 11 0
BBX 9 9 1 0
BITMAP
6700
6980
7180
6300
6C00
C600
C600
C680
C300
ENDCHAR
STARTCHAR Lacute
ENCODING 313
SWIDTH 667 0
DWIDTH 12 0
BBX 11 18 1 0
BITMAP
0300
0600
0800
0000
3C00
1800
1800
1800
1800
3000
3000
3000
3000
6020
6020
6040
60C0
FFC0
ENDCHAR
STARTCHAR lacute
ENCODING 314
SWIDTH 333 0
DWIDTH 5 0
BBX 6 18 1 0
BITMAP
0C
18
20
00
70
30
30
30
30
60
60
60
60
C0
C0
C0
D0
E0
ENDCHAR
STARTCHAR Lcommaaccent
ENCODING 315
SWIDTH 667 0
DWIDTH 12 0
BBX 11 20 1 -6
BITMAP
3C00
1800
1800
1800
1800
3000
3000
3000
3000
6020
6020
6040
60C0
FFC0
0000
0C00
0C00
0400
0800
1000
ENDCHAR
STARTCHAR lcommaaccent
ENCODING 316
SWIDTH 333 0
DWIDTH 5 0
BBX 4 20 1 -6
BITMAP
70
30
30
30
30
60
60
60
60
C0
C0
C0
D0
E0
00
60
60
20
40
80
ENDCHAR
STARTCHAR Lcaron
ENCODING 317
SWIDTH 838 0
DWIDTH 16 0
BBX 14 14 1 0
BITMAP
3C0C
180C
1804
1808
1810
3000
3000
3000
3000
6020
6020
6040
60C0
FFC0
ENDCHAR
STARTCHAR lcaron
ENCODING 318
SWIDTH 520 0
DWIDTH 10 0
BBX 8 14 1 0
BITMAP
73
33
31
32
34
60
60
60
60
C0
C0
C0
D0
E0
ENDCHAR
STARTCHAR Ldot
ENCODING 319
SWIDTH 912 0
DWIDTH 16 0
BBX 14 14 1 0
BITMAP
3C00
1800
1800
1800
1800
3000
3000
300C
300C
6020
6020
6040
60C0
FFC0
ENDCHAR
STARTCHAR ldot
ENCODING 320
SWIDTH 594 0
DWIDTH 10 0
BBX 8 14 1 0
BITMAP
70
30
30
30
30
60
60
63
63
C0
C0
C0
D0
E0
ENDCHAR
STARTCHAR Lslash
ENCODING 321
SWIDTH 667 0
DWIDTH 12 0
BBX 12 14 0 0
BITMAP
1E00
0C00
0C00
0C00
0C00
1B00
1C00
3800
D800
3010
3010
3020
3060
7FE0
ENDCHAR
STARTCHAR lslash
ENCODING 322
SWIDTH 333 0
DWIDTH 6 0
BBX 6 14 0 0
BITMAP
38
18
18
18
18
34
38
70
B0
60
60
60
68
70
ENDCHAR
STARTCHAR Nacute
ENCODING 323
SWIDTH 815 0
DWIDTH 15 0
BBX 14 18 1 0
BITMAP
00C0
0180
0200
0000
3C1C
1C08
1608
1608
1308
3318
2190
2190
20D0
60F0
4060
4060
4020
E020
ENDCHAR
STARTCHAR nacute
ENCODING 324
SWIDTH 611 0
DWIDTH 11 0
BBX 10 13 1 0
BITMAP
0300
0600
0800
0000
E700
6980
7180
6180
6180
C300
C300
C340
C180
ENDCHAR
STARTCHAR Ncommaaccent
ENCODING 325
SWIDTH 815 0
DWIDTH 15 0
BBX 14 20 1 -6
BITMAP
3C1C
1C08
1608
1608
1308
3318
2190
2190
20D0
60F0
4060
4060
4020
E020
0000
0600
0600
0200
0400
0800
ENDCHAR
STARTCHAR ncommaaccent
ENCODING 326
SWIDTH 611 0
DWIDTH 11 0
BBX 10 15 1 -6
BITMAP
E700
6980
7180
6180
6180
C300
C300
C340
C180
0000
0C00
0C00
0400
0800
1000
ENDCHAR
STARTCHAR Ncaron
ENCODING 327
SWIDTH 815 0
DWIDTH 15 0
BBX 14 19 1 0
BITMAP
0440
0480
0300
0200
0000
3C1C
1C08
1608
1608
1308
3318
2190
2190
20D0
60F0
4060
4060
4020
E020
ENDCHAR
STARTCHAR ncaron
ENCODING 328
SWIDTH 611 0
DWIDTH 11 0
BBX 10 14 1 0
BITMAP
1100
1200
0C00
0800
0000
E700
6980
7180
6180
6180
C300
C300
C340
C180
ENDCHAR
STARTCHAR napostrophe
ENCODING 329
SWIDTH 805 0
DWIDTH 16 0
BBX 15 14 1 0
BITMAP
6000
6000
2000
4000
8000
0738
034C
038C
030C
030C
0618
0618
061A
060C
ENDCHAR
STARTCHAR Eng
ENCODING 330
SWIDTH 815 0
DWIDTH 15 0
BBX 14 18 1 -4
BITMAP
3C1C
1C08
1608
1608
1308
3318
2190
2190
20D0
60F0
4060
40E0
40E0
E0E0
00C0
0080
0680
0700
ENDCHAR
STARTCHAR eng
ENCODING 331
SWIDTH 611 0
DWIDTH 11 0
BBX 9 13 1 -4
BITMAP
E700
6980
7180
6180
6180
C300
C600
C600
C600
0600
0400
3400
3800
ENDCHAR
STARTCHAR Omacron
ENCODING 332
SWIDTH 778 0
DWIDTH 14 0
BBX 13 16 1 0
BITMAP
07C0
0000
07C0
1830
3030
6018
6018
C018
C018
C018
C018
C030
C030
6060
60C0
1F00
ENDCHAR
STARTCHAR omacron
ENCODING 333
SWIDTH 500 0
DWIDTH 11 0
BBX 9 11 1 0
BITMAP
3E00
0000
1E00
6300
6180
C180
C180
C180
C300
6300
3C00
ENDCHAR
STARTCHAR Obreve
ENCODING 334
SWIDTH 778 0
DWIDTH 14 0
BBX 13 18 1 0
BITMAP
0440
06C0
0380
0000
07C0
1830
3030
6018
6018
C018
C018
C018
C018
C030
C030
6060
60C0
1F00
ENDCHAR
STARTCHAR obreve
ENCODING 335
SWIDTH 500 0
DWIDTH 11 0
BBX 9 13 1 0
BITMAP
2200
3600
1C00
0000
1E00
6300
6180
C180
C180
C180
C300
6300
3C00
ENDCHAR
STARTCHAR Ohungarumlaut
ENCODING 336
SWIDTH 778 0
DWIDTH 14 0
BBX 13 18 1 0
BITMAP
0330
0660
0880
0000
07C0
1830
3030
6018
6018
C018
C018
C018
C018
C030
C030
6060
60C0
1F00
ENDCHAR
STARTCHAR ohungarumlaut
ENCODING 337
SWIDTH 500 0
DWIDTH 11 0
BBX 10 13 1 0
BITMAP
0CC0
1980
2200
0000
1E00
6300
6180
C180
C180
C180
C300
6300
3C00
ENDCHAR
STARTCHAR OE
ENCODING 338
SWIDTH 981 0
DWIDTH 20 0
BBX 19 14 1 0
BITMAP
07FFE0
187060
303020
603020
603100
C06100
C07E00
C06600
C06200
C0C220
C0C020
60C040
61C0C0
1FFFC0
ENDCHAR
STARTCHAR oe
ENCODING 339
SWIDTH 778 0
DWIDTH 16 0
BBX 14 9 1 0
BITMAP
1E78
638C
618C
C318
C330
C3C0
C304
6388
3CF0
ENDCHAR
STARTCHAR Racute
ENCODING 340
SWIDTH 741 0
DWIDTH 14 0
BBX 13 18 1 0
BITMAP
00C0
0180
0200
0000
3FC0
1830
1830
1830
1830
3060
3F80
3180
30C0
60C0
60C0
60C0
60C8
F070
ENDCHAR
STARTCHAR racute
ENCODING 341
SWIDTH 444 0
DWIDTH 7 0
BBX 7 13 1 0
BITMAP
0C
18
20
00
EE
76
60
60
60
C0
C0
C0
C0
ENDCHAR
STARTCHAR Rcommaaccent
ENCODING 342
SWIDTH 741 0
DWIDTH 14 0
BBX 13 20 1 -6
BITMAP
3FC0
1830
1830
1830
1830
3060
3F80
3180
30C0
60C0
60C0
60C0
60C8
F070
0000
0600
0600
0200
0400
0800
ENDCHAR
STARTCHAR rcommaaccent
ENCODING 343
SWIDTH 444 0
DWIDTH 7 0
BBX 7 15 1 -6
BITMAP
EE
76
60
60
60
C0
C0
C0
C0
00
60
60
20
40
80
ENDCHAR
STARTCHAR Rcaron
ENCODING 344
SWIDTH 741 0
DWIDTH 14 0
BBX 13 19 1 0
BITMAP
0440
0480
0300
0200
0000
3FC0
1830
1830
1830
1830
3060
3F80
3180
30C0
60C0
60C0
60C0
60C8
F070
ENDCHAR
STARTCHAR rcaron
ENCODING 345
SWIDTH 444 0
DWIDTH 7 0
BBX 7 14 1 0
BITMAP
44
48
30
20
00
EE
76
60
60
60
C0
C0
C0
C0
ENDCHAR
STARTCHAR Sacute
ENCODING 346
SWIDTH 667 0
DWIDTH 12 0
BBX 11 18 1 0
BITMAP
00C0
0180
0200
0000
07A0
1860
1040
2040
3000
3800
3F00
0FC0
01C0
00C0
4040
4080
E180
9E00
ENDCHAR
STARTCHAR sacute
ENCODING 347
SWIDTH 444 0
DWIDTH 8 0
BBX 8 13 0 0
BITMAP
03
06
08
00
1E
23
63
70
3C
0E
C6
C4
78
ENDCHAR
STARTCHAR Scircumflex
ENCODING 348
SWIDTH 667 0
DWIDTH 12 0
BBX 11 18 1 0
BITMAP
0300
0780
0880
0000
07A0
1860
1040
2040
3000
3800
3F00
0FC0
01C0
00C0
4040
4080
E180
9E00
ENDCHAR
STARTCHAR scircumflex
ENCODING 349
SWIDTH 444 0
DWIDTH 8 0
BBX 8 13 0 0
BITMAP
0C
1E
22
00
1E
23
63
70
3C
0E
C6
C4
78
ENDCHAR
STARTCHAR Scedilla
ENCODING 350
SWIDTH 667 0
DWIDTH 12 0
BBX 11 18 1 -4
BITMAP
07A0
1860
1040
2040
3000
3800
3F00
0FC0
01C0
00C0
4040
4080
E180
9E00
0800
0C00
0400
1800
ENDCHAR
STARTCHAR scedilla
ENCODING 351
SWIDTH 444 0
DWIDTH 8 0
BBX 8 13 0 -4
BITMAP
1E
23
63
70
3C
0E
C6
C4
78
10
18
08
30
ENDCHAR
STARTCHAR Scaron
ENCODING 352
SWIDTH 667 0
DWIDTH 12 0
BBX 11 18 1 0
BITMAP
0120
00C0
0080
0000
07A0
1860
1040
2040
3000
3800
3F00
0FC0
01C0
00C0
4040
4080
E180
9E00
ENDCHAR
STARTCHAR scaron
ENCODING 353
SWIDTH 444 0
DWIDTH 8 0
BBX 8 14 0 0
BITMAP
11
12
0C
08
00
1E
23
63
70
3C
0E
C6
C4
78
ENDCHAR
STARTCHAR Tcommaaccent
ENCODING 354
SWIDTH 685 0
DWIDTH 12 0
BBX 12 18 1 -4
BITMAP
FFF0
C630
8610
8610
0600
0C00
0C00
0C00
0C00
1800
1800
1800
1800
3C00
0800
0C00
0400
1800
ENDCHAR
STARTCHAR tcommaaccent
ENCODING 355
SWIDTH 352 0
DWIDTH 6 0
BBX 7 16 0 -4
BITMAP
18
18
18
FE
30
30
30
60
60
60
68
70
20
30
10
60
ENDCHAR
STARTCHAR Tcaron
ENCODING 356
SWIDTH 685 0
DWIDTH 12 0
BBX 12 19 1 0
BITMAP
0880
0900
0600
0400
0000
FFF0
C630
8610
8610
0600
0C00
0C00
0C00
0C00
1800
1800
1800
1800
3C00
ENDCHAR
STARTCHAR tcaron
ENCODING 357
SWIDTH 538 0
DWIDTH 11 0
BBX 10 14 0 0
BITMAP
00C0
00C0
1840
1880
1900
FE00
3000
3000
3000
6000
6000
6000
6800
7000
ENDCHAR
STARTCHAR Tbar
ENCODING 358
SWIDTH 685 0
DWIDTH 12 0
BBX 12 14 1 0
BITMAP
FFF0
C630
8610
8610
0600
0C00
1F80
0C00
0C00
1800
1800
1800
1800
3C00
ENDCHAR
STARTCHAR tbar
ENCODING 359
SWIDTH 352 0
DWIDTH 6 0
BBX 7 12 0 0
BITMAP
18
18
18
FE
30
30
30
7E
60
60
68
70
ENDCHAR
STARTCHAR Utilde
ENCODING 360
SWIDTH 815 0
DWIDTH 15 0
BBX 13 17 2 0
BITMAP
0E80
1700
0000
7C38
3010
3010
3010
6020
6020
6020
6020
C020
C040
C040
C040
6080
3F00
ENDCHAR
STARTCHAR utilde
ENCODING 361
SWIDTH 611 0
DWIDTH 11 0
BBX 10 12 1 0
BITMAP
1D00
2E00
0000
E180
6180
6180
6180
C300
C300
C700
CB40
7180
ENDCHAR
STARTCHAR Umacron
ENCODING 362
SWIDTH 815 0
DWIDTH 15 0
BBX 13 16 2 0
BITMAP
0F80
0000
7C38
3010
3010
3010
6020
6020
6020
6020
C020
C040
C040
C040
6080
3F00
ENDCHAR
STARTCHAR umacron
ENCODING 363
SWIDTH 611 0
DWIDTH 11 0
BBX 10 11 1 0
BITMAP
3E00
0000
E180
6180
6180
6180
C300
C300
C700
CB40
7180
ENDCHAR
STARTCHAR Ubreve
ENCODING 364
SWIDTH 815 0
DWIDTH 15 0
BBX 13 18 2 0
BITMAP
0880
0D80
0700
0000
7C38
3010
3010
3010
6020
6020
6020
6020
C020
C040
C040
C040
6080
3F00
ENDCHAR
STARTCHAR ubreve
ENCODING 365
SWIDTH 611 0
DWIDTH 11 0
BBX 10 13 1 0
BITMAP
2200
3600
1C00
0000
E180
6180
6180
6180
C300
C300
C700
CB40
7180
ENDCHAR
STARTCHAR Uring
ENCODING 366
SWIDTH 815 0
DWIDTH 15 0
BBX 13 19 2 0
BITMAP
0600
0900
0900
0600
0000
7C38
3010
3010
3010
6020
6020
6020
6020
C020
C040
C040
C040
6080
3F00
ENDCHAR
STARTCHAR uring
ENCODING 367
SWIDTH 611 0
DWIDTH 11 0
BBX 10 14 1 0
BITMAP
0C00
1200
1200
0C00
0000
E180
6180
6180
6180
C300
C300
C700
CB40
7180
ENDCHAR
STARTCHAR Uhungarumlaut
ENCODING 368
SWIDTH 815 0
DWIDTH 15 0
BBX 13 18 2 0
BITMAP
0660
0CC0
1100
0000
7C38
3010
3010
3010
6020
6020
6020
6020
C020
C040
C040
C040
6080
3F00
ENDCHAR
STARTCHAR uhungarumlaut
ENCODING 369
SWIDTH 611 0
DWIDTH 11 0
BBX 10 13 1 0
BITMAP
0CC0
1980
2200
0000
E180
6180
6180
6180
C300
C300
C700
CB40
7180
ENDCHAR
STARTCHAR Uogonek
ENCODING 370
SWIDTH 815 0
DWIDTH 15 0
BBX 13 18 2 -4
BITMAP
7C38
3010
3010
3010
6020
6020
6020
6020
C020
C040
C040
C040
6080
3F00
0400
0800
0900
0E00
ENDCHAR
STARTCHAR uogonek
ENCODING 371
SWIDTH 611 0
DWIDTH 11 0
BBX 10 13 1 -4
BITMAP
E180
6180
6180
6180
C300
C300
C700
CB40
7180
0800
1000
1200
1C00
ENDCHAR
STARTCHAR Wcircumflex
ENCODING 372
SWIDTH 926 0
DWIDTH 17 0
BBX 17 18 1 0
BITMAP
00C000
01E000
022000
000000
F1E380
60C100
60C100
61C200
61C200
316200
326400
326400
326400
1C3800
1C3800
1C3800
183000
183000
ENDCHAR
STARTCHAR wcircumflex
ENCODING 373
SWIDTH 778 0
DWIDTH 15 0
BBX 13 13 1 0
BITMAP
0300
0780
0880
0000
E338
6318
6308
6308
C608
C610
C610
CA20
71C0
ENDCHAR
STARTCHAR Ycircumflex
ENCODING 374
SWIDTH 685 0
DWIDTH 14 0
BBX 13 18 2 0
BITMAP
0300
0780
0880
0000
F078
6030
3020
3040
1880
1900
0E00
0C00
0C00
1800
1800
1800
1800
3C00
ENDCHAR
STARTCHAR ycircumflex
ENCODING 375
SWIDTH 500 0
DWIDTH 9 0
BBX 10 16 -1 -3
BITMAP
0600
0F00
1100
0000
30C0
7040
1880
1880
0D00
0D00
0600
0600
0400
0800
C800
F000
ENDCHAR
STARTCHAR Ydieresis
ENCODING 376
SWIDTH 685 0
DWIDTH 14 0
BBX 13 17 2 0
BITMAP
0CC0
0CC0
0000
F078
6030
3020
3040
1880
1900
0E00
0C00
0C00
1800
1800
1800
1800
3C00
ENDCHAR
STARTCHAR Zacute
ENCODING 377
SWIDTH 667 0
DWIDTH 13 0
BBX 12 18 1 0
BITMAP
00C0
0180
0200
0000
3FF0
3070
60E0
41C0
0180
0300
0700
0E00
0C00
1800
3820
7060
E0C0
FFC0
ENDCHAR
STARTCHAR zacute
ENCODING 378
SWIDTH 463 0
DWIDTH 9 0
BBX 9 13 0 0
BITMAP
0300
0600
0800
0000
3C80
4F80
0300
0600
0C00
1800
3000
7900
9E00
ENDCHAR
STARTCHAR Zdotaccent
ENCODING 379
SWIDTH 667 0
DWIDTH 13 0
BBX 12 17 1 0
BITMAP
0300
0300
0000
3FF0
3070
60E0
41C0
0180
0300
0700
0E00
0C00
1800
3820
7060
E0C0
FFC0
ENDCHAR
STARTCHAR zdotaccent
ENCODING 380
SWIDTH 463 0
DWIDTH 9 0
BBX 9 12 0 0
BITMAP
0C00
0C00
0000
3C80
4F80
0300
0600
0C00
1800
3000
7900
9E00
ENDCHAR
STARTCHAR Zcaron
ENCODING 381
SWIDTH 667 0
DWIDTH 13 0
BBX 12 18 1 0
BITMAP
0240
0180
0100
0000
3FF0
3070
60E0
41C0
0180
0300
0700
0E00
0C00
1800
3820
7060
E0C0
FFC0
ENDCHAR
STARTCHAR zcaron
ENCODING 382
SWIDTH 463 0
DWIDTH 9 0
BBX 9 14 0 0
BITMAP
1100
1200
0C00
0800
0000
3C80
4F80
0300
0600
0C00
1800
3000
7900
9E00
ENDCHAR
STARTCHAR uni0186
ENCODING 390
SWIDTH 722 0
DWIDTH 13 0
BBX 12 14 1 0
BITMAP
0F80
3060
2060
4030
4030
0030
0030
0030
0030
4060
4060
40C0
C180
BE00
ENDCHAR
STARTCHAR uni0189
ENCODING 393
SWIDTH 778 0
DWIDTH 15 0
BBX 13 14 1 0
BITMAP
3FE0
1830
1818
1818
1818
3018
FE18
3018
3030
6030
6030
6060
60C0
FF00
ENDCHAR
STARTCHAR uni018E
ENCODING 398
SWIDTH 722 0
DWIDTH 13 0
BBX 12 14 1 0
BITMAP
3FF0
3060
2060
4060
4860
08C0
0CC0
0FC0
10C0
1180
8180
8180
C180
FFC0
ENDCHAR
STARTCHAR florin
ENCODING 402
SWIDTH 556 0
DWIDTH 10 0
BBX 12 18 -2 -4
BITMAP
0070
00B0
0180
0180
0300
0300
1FC0
0600
0600
0600
0C00
0C00
0C00
1800
1800
1800
D000
E000
ENDCHAR
STARTCHAR uni0197
ENCODING 407
SWIDTH 407 0
DWIDTH 8 0
BBX 6 14 2 0
BITMAP
3C
18
18
18
18
30
FC
30
30
60
60
60
60
F0
ENDCHAR
STARTCHAR uni019A
ENCODING 410
SWIDTH 333 0
DWIDTH 5 0
BBX 6 14 0 0
BITMAP
38
18
18
18
18
30
FC
30
30
60
60
60
68
70
ENDCHAR
STARTCHAR uni019D
ENCODING 413
SWIDTH 815 0
DWIDTH 15 0
BBX 17 18 -2 -4
BITMAP
078380
038100
02C100
02C100
026100
066300
043200
043200
041A00
0C1E00
0C0C00
180C00
180400
180400
180000
100000
D00000
E00000
ENDCHAR
STARTCHAR uni019F
ENCODING 415
SWIDTH 778 0
DWIDTH 14 0
BBX 13 14 1 0
BITMAP
07C0
1830
3030
6018
6018
C018
FFF8
C018
C018
C030
C030
6060
60C0
1F00
ENDCHAR
STARTCHAR Ohorn
ENCODING 416
SWIDTH 778 0
DWIDTH 14 0
BBX 15 14 1 0
BITMAP
07C6
1836
3032
601C
6018
C018
C018
C018
C018
C030
C030
6060
60C0
1F00
ENDCHAR
STARTCHAR ohorn
ENCODING 417
SWIDTH 500 0
DWIDTH 11 0
BBX 11 9 1 0
BITMAP
1E60
6360
61A0
C1C0
C180
C180
C300
6300
3C00
ENDCHAR
STARTCHAR Uhorn
ENCODING 431
SWIDTH 815 0
DWIDTH 15 0
BBX 15 14 2 0
BITMAP
7C3E
3016
3012
3014
6028
6020
6020
6020
C020
C040
C040
C040
6080
3F00
ENDCHAR
STARTCHAR uhorn
ENCODING 432
SWIDTH 611 0
DWIDTH 11 0
BBX 12 9 1 0
BITMAP
E1B0
61B0
6190
61A0
C340
C300
C700
CB40
7180
ENDCHAR
STARTCHAR uni01B5
ENCODING 437
SWIDTH 667 0
DWIDTH 13 0
BBX 12 14 1 0
BITMAP
3FF0
3070
60E0
41C0
0180
0300
1F80
0E00
0C00
1800
3820
7060
E0C0
FFC0
ENDCHAR
STARTCHAR uni01B6
ENCODING 438
SWIDTH 463 0
DWIDTH 9 0
BBX 9 9 0 0
BITMAP
3C80
4F80
0300
0600
3F00
1800
3000
7900
9E00
ENDCHAR
STARTCHAR uni01BB
ENCODING 443
SWIDTH 556 0
DWIDTH 10 0
BBX 9 14 1 0
BITMAP
0E00
3180
6180
6180
0180
0300
FF80
0600
0C00
1800
3080
6080
FF00
FF00
ENDCHAR
STARTCHAR uni01BC
ENCODING 444
SWIDTH 556 0
DWIDTH 10 0
BBX 9 14 1 0
BITMAP
1F80
1F00
1000
1000
2000
3E00
2300
0300
0300
0300
0300
C600
C400
7800
ENDCHAR
STARTCHAR uni01C0
ENCODING 448
SWIDTH 606 0
DWIDTH 10 0
BBX 1 14 4 0
BITMAP
80
80
80
80
80
80
80
80
80
80
80
80
80
80
ENDCHAR
STARTCHAR uni01C2
ENCODING 450
SWIDTH 606 0
DWIDTH 11 0
BBX 9 14 1 -1
BITMAP
0800
0800
0800
0800
0800
FF80
0800
0800
FF80
0800
0800
0800
0800
0800
ENDCHAR
STARTCHAR uni01C3
ENCODING 451
SWIDTH 333 0
DWIDTH 7 0
BBX 4 14 2 0
BITMAP
30
30
30
30
20
60
60
40
40
40
00
00
C0
C0
ENDCHAR
STARTCHAR uni01CD
ENCODING 461
SWIDTH 704 0
DWIDTH 13 0
BBX 12 19 0 0
BITMAP
0440
0480
0300
0200
0000
0100
0300
0380
0580
0580
08C0
08C0
10C0
1FC0
2060
2060
4060
4060
E0F0
ENDCHAR
STARTCHAR uni01CE
ENCODING 462
SWIDTH 574 0
DWIDTH 11 0
BBX 10 14 1 0
BITMAP
1100
1200
0C00
0800
0000
1D80
6380
6180
C180
C300
C300
C300
6740
3980
ENDCHAR
STARTCHAR uni01CF
ENCODING 463
SWIDTH 407 0
DWIDTH 8 0
BBX 7 19 2 0
BITMAP
22
24
18
10
00
3C
18
18
18
18
30
30
30
30
60
60
60
60
F0
ENDCHAR
STARTCHAR uni01D0
ENCODING 464
SWIDTH 333 0
DWIDTH 5 0
BBX 5 14 1 0
BITMAP
88
90
60
40
00
E0
60
60
60
C0
C0
C0
D0
E0
ENDCHAR
STARTCHAR uni01D1
ENCODING 465
SWIDTH 778 0
DWIDTH 14 0
BBX 13 19 1 0
BITMAP
0440
0480
0300
0200
0000
07C0
1830
3030
6018
6018
C018
C018
C018
C018
C030
C030
6060
60C0
1F00
ENDCHAR
STARTCHAR uni01D2
ENCODING 466
SWIDTH 500 0
DWIDTH 11 0
BBX 9 14 1 0
BITMAP
1100
1200
0C00
0800
0000
1E00
6300
6180
C180
C180
C180
C300
6300
3C00
ENDCHAR
STARTCHAR uni01D3
ENCODING 467
SWIDTH 815 0
DWIDTH 15 0
BBX 13 19 2 0
BITMAP
0880
0900
0600
0400
0000
7C38
3010
3010
3010
6020
6020
6020
6020
C020
C040
C040
C040
6080
3F00
ENDCHAR
STARTCHAR uni01D4
ENCODING 468
SWIDTH 611 0
DWIDTH 11 0
BBX 10 14 1 0
BITMAP
1100
1200
0C00
0800
0000
E180
6180
6180
6180
C300
C300
C700
CB40
7180
ENDCHAR
STARTCHAR uni01D5
ENCODING 469
SWIDTH 815 0
DWIDTH 15 0
BBX 13 19 2 0
BITMAP
0F80
0000
0660
0660
0000
7C38
3010
3010
3010
6020
6020
6020
6020
C020
C040
C040
C040
6080
3F00
ENDCHAR
STARTCHAR uni01D6
ENCODING 470
SWIDTH 611 0
DWIDTH 11 0
BBX 10 14 1 0
BITMAP
3E00
0000
1B00
1B00
0000
E180
6180
6180
6180
C300
C300
C700
CB40
7180
ENDCHAR
STARTCHAR uni01D7
ENCODING 471
SWIDTH 815 0
DWIDTH 15 0
BBX 13 21 2 0
BITMAP
00C0
0180
0200
0000
0660
0660
0000
7C38
3010
3010
3010
6020
6020
6020
6020
C020
C040
C040
C040
6080
3F00
ENDCHAR
STARTCHAR uni01D8
ENCODING 472
SWIDTH 611 0
DWIDTH 11 0
BBX 10 16 1 0
BITMAP
0300
0600
0800
0000
1B00
1B00
0000
E180
6180
6180
6180
C300
C300
C700
CB40
7180
ENDCHAR
STARTCHAR uni01D9
ENCODING 473
SWIDTH 815 0
DWIDTH 15 0
BBX 13 22 2 0
BITMAP
0440
0480
0300
0200
0000
0660
0660
0000
7C38
3010
3010
3010
6020
6020
6020
6020
C020
C040
C040
C040
6080
3F00
ENDCHAR
STARTCHAR uni01DA
ENCODING 474
SWIDTH 611 0
DWIDTH 11 0
BBX 10 17 1 0
BITMAP
1100
1200
0C00
0800
0000
1B00
1B00
0000
E180
6180
6180
6180
C300
C300
C700
CB40
7180
ENDCHAR
STARTCHAR uni01DB
ENCODING 475
SWIDTH 815 0
DWIDTH 15 0
BBX 13 21 2 0
BITMAP
0C00
0600
0100
0000
0660
0660
0000
7C38
3010
3010
3010
6020
6020
6020
6020
C020
C040
C040
C040
6080
3F00
ENDCHAR
STARTCHAR uni01DC
ENCODING 476
SWIDTH 611 0
DWIDTH 11 0
BBX 10 16 1 0
BITMAP
3000
1800
0400
0000
1B00
1B00
0000
E180
6180
6180
6180
C300
C300
C700
CB40
7180
ENDCHAR
STARTCHAR uni01DD
ENCODING 477
SWIDTH 444 0
DWIDTH 9 0
BBX 8 9 1 0
BITMAP
3C
46
83
0F
33
63
C6
C6
78
ENDCHAR
STARTCHAR uni01DE
ENCODING 478
SWIDTH 704 0
DWIDTH 13 0
BBX 12 19 0 0
BITMAP
07C0
0000
0660
0660
0000
0100
0300
0380
0580
0580
08C0
08C0
10C0
1FC0
2060
2060
4060
4060
E0F0
ENDCHAR
STARTCHAR uni01DF
ENCODING 479
SWIDTH 574 0
DWIDTH 11 0
BBX 10 14 1 0
BITMAP
1F00
0000
1980
1980
0000
1D80
6380
6180
C180
C300
C300
C300
6740
3980
ENDCHAR
STARTCHAR uni01E0
ENCODING 480
SWIDTH 704 0
DWIDTH 13 0
BBX 12 19 0 0
BITMAP
0F80
0000
0300
0300
0000
0100
0300
0380
0580
0580
08C0
08C0
10C0
1FC0
2060
2060
4060
4060
E0F0
ENDCHAR
STARTCHAR uni01E1
ENCODING 481
SWIDTH 574 0
DWIDTH 11 0
BBX 10 14 1 0
BITMAP
1F00
0000
0C00
0C00
0000
1D80
6380
6180
C180
C300
C300
C300
6740
3980
ENDCHAR
STARTCHAR uni01E2
ENCODING 482
SWIDTH 870 0
DWIDTH 19 0
BBX 20 16 -1 0
BITMAP
003E00
000000
01FFF0
005830
009810
009810
011880
023080
023F00
043300
0FF100
086110
106010
206020
606060
F0FFE0
ENDCHAR
STARTCHAR uni01E3
ENCODING 483
SWIDTH 722 0
DWIDTH 15 0
BBX 13 11 1 0
BITMAP
0F80
0000
1CF0
6318
6318
0630
1E60
6780
C608
CB10
71E0
ENDCHAR
STARTCHAR uni01E4
ENCODING 484
SWIDTH 778 0
DWIDTH 14 0
BBX 14 14 1 0
BITMAP
07C8
1838
3010
6010
6010
C000
C000
C0F8
C030
C030
C060
60FC
60E0
1F20
ENDCHAR
STARTCHAR uni01E5
ENCODING 485
SWIDTH 537 0
DWIDTH 9 0
BBX 11 15 -1 -4
BITMAP
0060
0080
0780
18C0
30C0
30C0
3180
1E00
2000
3F00
4180
FFE0
C100
E300
7E00
ENDCHAR
STARTCHAR Gcaron
ENCODING 486
SWIDTH 778 0
DWIDTH 14 0
BBX 13 19 1 0
BITMAP
0440
0480
0300
0200
0000
07C8
1838
3010
6010
6010
C000
C000
C0F8
C030
C030
C060
6060
60E0
1F20
ENDCHAR
STARTCHAR gcaron
ENCODING 487
SWIDTH 537 0
DWIDTH 9 0
BBX 11 20 -1 -4
BITMAP
0440
0480
0300
0200
0000
0060
0080
0780
18C0
30C0
30C0
3180
1E00
2000
3F00
4180
C180
C100
E300
7E00
ENDCHAR
STARTCHAR uni01E8
ENCODING 488
SWIDTH 741 0
DWIDTH 14 0
BBX 13 19 1 0
BITMAP
0880
0900
0600
0400
0000
3C38
1820
1840
1880
1900
3200
3700
3B00
3180
6180
60C0
60C0
6060
F0F8
ENDCHAR
STARTCHAR uni01E9
ENCODING 489
SWIDTH 556 0
DWIDTH 11 0
BBX 9 19 1 0
BITMAP
4400
4800
3000
2000
0000
7000
3000
3000
3000
3000
6700
6980
7180
6300
6C00
C600
C600
C680
C300
ENDCHAR
STARTCHAR uni01EA
ENCODING 490
SWIDTH 778 0
DWIDTH 14 0
BBX 13 18 1 -4
BITMAP
07C0
1830
3030
6018
6018
C018
C018
C018
C018
C030
C030
6060
60C0
1F00
0200
0400
0480
0700
ENDCHAR
STARTCHAR uni01EB
ENCODING 491
SWIDTH 500 0
DWIDTH 11 0
BBX 9 13 1 -4
BITMAP
1E00
6300
6180
C180
C180
C180
C300
6300
3C00
0800
1000
1200
1C00
ENDCHAR
STARTCHAR uni01EC
ENCODING 492
SWIDTH 778 0
DWIDTH 14 0
BBX 13 20 1 -4
BITMAP
0F80
0000
07C0
1830
3030
6018
6018
C018
C018
C018
C018
C030
C030
6060
60C0
1F00
0200
0400
0480
0700
ENDCHAR
STARTCHAR uni01ED
ENCODING 493
SWIDTH 500 0
DWIDTH 11 0
BBX 9 15 1 -4
BITMAP
3E00
0000
1E00
6300
6180
C180
C180
C180
C300
6300
3C00
0800
1000
1200
1C00
ENDCHAR
STARTCHAR uni01F0
ENCODING 496
SWIDTH 315 0
DWIDTH 5 0
BBX 7 18 -2 -4
BITMAP
22
24
18
10
00
1C
0C
0C
0C
0C
0C
18
18
18
18
10
D0
E0
ENDCHAR
STARTCHAR uni01F4
ENCODING 500
SWIDTH 778 0
DWIDTH 14 0
BBX 13 18 1 0
BITMAP
00C0
0180
0200
0000
07C8
1838
3010
6010
6010
C000
C000
C0F8
C030
C030
C060
6060
60E0
1F20
ENDCHAR
STARTCHAR uni01F5
ENCODING 501
SWIDTH 537 0
DWIDTH 9 0
BBX 11 19 -1 -4
BITMAP
00C0
0180
0200
0000
0060
0080
0780
18C0
30C0
30C0
3180
1E00
2000
3F00
4180
C180
C100
E300
7E00
ENDCHAR
STARTCHAR uni01F8
ENCODING 504
SWIDTH 815 0
DWIDTH 15 0
BBX 14 18 1 0
BITMAP
0C00
0600
0100
0000
3C1C
1C08
1608
1608
1308
3318
2190
2190
20D0
60F0
4060
4060
4020
E020
ENDCHAR
STARTCHAR uni01F9
ENCODING 505
SWIDTH 611 0
DWIDTH 11 0
BBX 10 13 1 0
BITMAP
3000
1800
0400
0000
E700
6980
7180
6180
6180
C300
C300
C340
C180
ENDCHAR
STARTCHAR Aringacute
ENCODING 506
SWIDTH 704 0
DWIDTH 13 0
BBX 12 22 0 0
BITMAP
00C0
0180
0200
0000
0300
0480
0480
0300
0100
0300
0380
0580
0580
08C0
08C0
10C0
1FC0
2060
2060
4060
4060
E0F0
ENDCHAR
STARTCHAR aringacute
ENCODING 507
SWIDTH 574 0
DWIDTH 11 0
BBX 10 18 1 0
BITMAP
0180
0300
0400
0000
0600
0900
0900
0600
0000
1D80
6380
6180
C180
C300
C300
C300
6740
3980
ENDCHAR
STARTCHAR AEacute
ENCODING 508
SWIDTH 870 0
DWIDTH 19 0
BBX 20 18 -1 0
BITMAP
000600
000C00
001000
000000
01FFF0
005830
009810
009810
011880
023080
023F00
043300
0FF100
086110
106010
206020
606060
F0FFE0
ENDCHAR
STARTCHAR aeacute
ENCODING 509
SWIDTH 722 0
DWIDTH 15 0
BBX 13 13 1 0
BITMAP
00C0
0180
0200
0000
1CF0
6318
6318
0630
1E60
6780
C608
CB10
71E0
ENDCHAR
STARTCHAR Oslashacute
ENCODING 510
SWIDTH 778 0
DWIDTH 14 0
BBX 15 19 0 -1
BITMAP
0030
0060
0080
0000
03E2
0C1C
1818
301C
302C
604C
608C
610C
620C
6418
6818
3030
3060
4F80
8000
ENDCHAR
STARTCHAR oslashacute
ENCODING 511
SWIDTH 500 0
DWIDTH 11 0
BBX 9 15 1 -1
BITMAP
0300
0600
0800
0000
0200
1E00
6700
6580
C980
C980
D180
D300
6300
3C00
2000
ENDCHAR
STARTCHAR Scommaaccent
ENCODING 536
SWIDTH 667 0
DWIDTH 12 0
BBX 11 20 1 -6
BITMAP
07A0
1860
1040
2040
3000
3800
3F00
0FC0
01C0
00C0
4040
4080
E180
9E00
0000
0C00
0C00
0400
0800
1000
ENDCHAR
STARTCHAR scommaaccent
ENCODING 537
SWIDTH 444 0
DWIDTH 8 0
BBX 8 15 0 -6
BITMAP
1E
23
63
70
3C
0E
C6
C4
78
00
18
18
08
10
20
ENDCHAR
STARTCHAR Tcommaaccent
ENCODING 538
SWIDTH 685 0
DWIDTH 12 0
BBX 12 20 1 -6
BITMAP
FFF0
C630
8610
8610
0600
0C00
0C00
0C00
0C00
1800
1800
1800
1800
3C00
0000
0C00
0C00
0400
0800
1000
ENDCHAR
STARTCHAR tcommaaccent
ENCODING 539
SWIDTH 352 0
DWIDTH 6 0
BBX 7 18 0 -6
BITMAP
18
18
18
FE
30
30
30
60
60
60
68
70
00
30
30
10
20
40
ENDCHAR
STARTCHAR uni021E
ENCODING 542
SWIDTH 833 0
DWIDTH 15 0
BBX 14 19 1 0
BITMAP
0220
0240
0180
0100
0000
3C3C
1818
1818
1818
1818
3030
3FF0
3030
3030
6060
6060
6060
6060
F0F0
ENDCHAR
STARTCHAR uni021F
ENCODING 543
SWIDTH 611 0
DWIDTH 11 0
BBX 10 19 1 0
BITMAP
2200
2400
1800
1000
0000
7000
3000
3000
3000
3000
6700
6980
7180
6180
6180
C300
C300
C340
C180
ENDCHAR
STARTCHAR uni0226
ENCODING 550
SWIDTH 704 0
DWIDTH 13 0
BBX 12 17 0 0
BITMAP
0300
0300
0000
0100
0300
0380
0580
0580
08C0
08C0
10C0
1FC0
2060
2060
4060
4060
E0F0
ENDCHAR
STARTCHAR uni0227
ENCODING 551
SWIDTH 574 0
DWIDTH 11 0
BBX 10 12 1 0
BITMAP
0C00
0C00
0000
1D80
6380
6180
C180
C300
C300
C300
6740
3980
ENDCHAR
STARTCHAR uni0228
ENCODING 552
SWIDTH 722 0
DWIDTH 13 0
BBX 12 18 1 -4
BITMAP
3FF0
1830
1810
1810
1880
3080
3F00
3300
3100
6120
6020
6040
60C0
FFC0
0400
0600
0200
0C00
ENDCHAR
STARTCHAR uni0229
ENCODING 553
SWIDTH 444 0
DWIDTH 9 0
BBX 8 13 1 -4
BITMAP
1E
63
63
C6
CC
F0
C1
62
3C
10
18
08
30
ENDCHAR
STARTCHAR uni022A
ENCODING 554
SWIDTH 778 0
DWIDTH 14 0
BBX 13 19 1 0
BITMAP
07C0
0000
0660
0660
0000
07C0
1830
3030
6018
6018
C018
C018
C018
C018
C030
C030
6060
60C0
1F00
ENDCHAR
STARTCHAR uni022B
ENCODING 555
SWIDTH 500 0
DWIDTH 11 0
BBX 9 14 1 0
BITMAP
1F00
0000
1B00
1B00
0000
1E00
6300
6180
C180
C180
C180
C300
6300
3C00
ENDCHAR
STARTCHAR uni022C
ENCODING 556
SWIDTH 778 0
DWIDTH 14 0
BBX 13 19 1 0
BITMAP
07C0
0000
03A0
05C0
0000
07C0
1830
3030
6018
6018
C018
C018
C018
C018
C030
C030
6060
60C0
1F00
ENDCHAR
STARTCHAR uni022D
ENCODING 557
SWIDTH 500 0
DWIDTH 11 0
BBX 9 14 1 0
BITMAP
1F00
0000
0E80
1700
0000
1E00
6300
6180
C180
C180
C180
C300
6300
3C00
ENDCHAR
STARTCHAR uni022E
ENCODING 558
SWIDTH 778 0
DWIDTH 14 0
BBX 13 17 1 0
BITMAP
0300
0300
0000
07C0
1830
3030
6018
6018
C018
C018
C018
C018
C030
C030
6060
60C0
1F00
ENDCHAR
STARTCHAR uni022F
ENCODING 559
SWIDTH 500 0
DWIDTH 11 0
BBX 9 12 1 0
BITMAP
0C00
0C00
0000
1E00
6300
6180
C180
C180
C180
C300
6300
3C00
ENDCHAR
STARTCHAR uni0230
ENCODING 560
SWIDTH 778 0
DWIDTH 14 0
BBX 13 19 1 0
BITMAP
07C0
0000
0300
0300
0000
07C0
1830
3030
6018
6018
C018
C018
C018
C018
C030
C030
6060
60C0
1F00
ENDCHAR
STARTCHAR uni0231
ENCODING 561
SWIDTH 500 0
DWIDTH 11 0
BBX 9 14 1 0
BITMAP
3E00
0000
0C00
0C00
0000
1E00
6300
6180
C180
C180
C180
C300
6300
3C00
ENDCHAR
STARTCHAR uni0232
ENCODING 562
SWIDTH 685 0
DWIDTH 14 0
BBX 13 16 2 0
BITMAP
0F80
0000
F078
6030
3020
3040
1880
1900
0E00
0C00
0C00
1800
1800
1800
1800
3C00
ENDCHAR
STARTCHAR uni0233
ENCODING 563
SWIDTH 500 0
DWIDTH 9 0
BBX 10 14 -1 -3
BITMAP
1F00
0000
30C0
7040
1880
1880
0D00
0D00
0600
0600
0400
0800
C800
F000
ENDCHAR
STARTCHAR uni0250
ENCODING 592
SWIDTH 574 0
DWIDTH 11 0
BBX 10 9 1 0
BITMAP
6700
B980
30C0
30C0
30C0
60C0
6180
7180
6E00
ENDCHAR
STARTCHAR uni0259
ENCODING 601
SWIDTH 444 0
DWIDTH 9 0
BBX 8 9 1 0
BITMAP
3C
46
83
0F
33
63
C6
C6
78
ENDCHAR
STARTCHAR uni025F
ENCODING 607
SWIDTH 333 0
DWIDTH 7 0
BBX 9 17 1 -8
BITMAP
0180
0180
0180
0300
0300
0300
0300
0300
0600
0600
0600
3F80
0C00
0C00
C800
D800
6000
ENDCHAR
STARTCHAR uni0265
ENCODING 613
SWIDTH 611 0
DWIDTH 11 0
BBX 10 14 1 -5
BITMAP
60C0
B0C0
30C0
30C0
6180
6180
6380
6580
3980
0300
0300
0300
0300
0380
ENDCHAR
STARTCHAR uni0275
ENCODING 629
SWIDTH 500 0
DWIDTH 11 0
BBX 9 9 1 0
BITMAP
1E00
6300
6180
C180
FF80
C180
C300
6300
3C00
ENDCHAR
STARTCHAR uni0279
ENCODING 633
SWIDTH 444 0
DWIDTH 7 0
BBX 7 9 1 0
BITMAP
06
06
06
06
0C
0C
0C
DC
EE
ENDCHAR
STARTCHAR uni0287
ENCODING 647
SWIDTH 352 0
DWIDTH 6 0
BBX 7 12 0 0
BITMAP
1C
2C
0C
0C
0C
18
18
18
FE
30
30
30
ENDCHAR
STARTCHAR uni0289
ENCODING 649
SWIDTH 611 0
DWIDTH 11 0
BBX 10 9 1 0
BITMAP
E180
6180
6180
6180
FFC0
C300
C700
CB40
7180
ENDCHAR
STARTCHAR uni028C
ENCODING 652
SWIDTH 519 0
DWIDTH 10 0
BBX 8 9 1 0
BITMAP
1E
23
43
43
83
86
86
C6
E7
ENDCHAR
STARTCHAR uni028D
ENCODING 653
SWIDTH 778 0
DWIDTH 15 0
BBX 13 9 1 0
BITMAP
1C70
2298
4318
4318
8318
8630
8630
C630
E638
ENDCHAR
STARTCHAR uni028E
ENCODING 654
SWIDTH 500 0
DWIDTH 9 0
BBX 10 12 -1 0
BITMAP
03C0
04C0
0400
0800
1800
1800
2C00
2C00
4600
4600
8380
C300
ENDCHAR
STARTCHAR uni029E
ENCODING 670
SWIDTH 556 0
DWIDTH 11 0
BBX 9 14 1 -5
BITMAP
6180
B180
3180
3180
1B00
6300
C700
CB00
7300
0600
0600
0600
0600
0700
ENDCHAR
STARTCHAR uni02BB
ENCODING 699
SWIDTH 204 0
DWIDTH 4 0
BBX 3 5 2 9
BITMAP
20
40
80
C0
C0
ENDCHAR
STARTCHAR afii57929
ENCODING 700
SWIDTH 204 0
DWIDTH 5 0
BBX 3 5 1 9
BITMAP
60
60
20
40
80
ENDCHAR
STARTCHAR afii64937
ENCODING 701
SWIDTH 204 0
DWIDTH 5 0
BBX 3 5 1 9
BITMAP
C0
C0
80
40
20
ENDCHAR
STARTCHAR circumflex
ENCODING 710
SWIDTH 333 0
DWIDTH 6 0
BBX 5 3 1 10
BITMAP
30
78
88
ENDCHAR
STARTCHAR caron
ENCODING 711
SWIDTH 333 0
DWIDTH 6 0
BBX 5 4 1 10
BITMAP
88
90
60
40
ENDCHAR
STARTCHAR uni02C8
ENCODING 712
SWIDTH 278 0
DWIDTH 4 0
BBX 1 5 2 9
BITMAP
80
80
80
80
80
ENDCHAR
STARTCHAR macron
ENCODING 713
SWIDTH 333 0
DWIDTH 6 0
BBX 5 1 1 11
BITMAP
F8
ENDCHAR
STARTCHAR uni02CA
ENCODING 714
SWIDTH 333 0
DWIDTH 5 0
BBX 4 3 1 11
BITMAP
30
60
80
ENDCHAR
STARTCHAR uni02CB
ENCODING 715
SWIDTH 333 0
DWIDTH 5 0
BBX 4 3 1 10
BITMAP
C0
60
10
ENDCHAR
STARTCHAR uni02CD
ENCODING 717
SWIDTH 333 0
DWIDTH 6 0
BBX 5 1 1 -2
BITMAP
F8
ENDCHAR
STARTCHAR uni02CE
ENCODING 718
SWIDTH 333 0
DWIDTH 5 0
BBX 4 3 1 -4
BITMAP
C0
60
10
ENDCHAR
STARTCHAR uni02CF
ENCODING 719
SWIDTH 333 0
DWIDTH 5 0
BBX 4 3 1 -4
BITMAP
30
60
80
ENDCHAR
STARTCHAR breve
ENCODING 728
SWIDTH 333 0
DWIDTH 6 0
BBX 5 3 1 10
BITMAP
88
D8
70
ENDCHAR
STARTCHAR dotaccent
ENCODING 729
SWIDTH 333 0
DWIDTH 3 0
BBX 2 2 1 10
BITMAP
C0
C0
ENDCHAR
STARTCHAR ring
ENCODING 730
SWIDTH 333 0
DWIDTH 5 0
BBX 4 4 1 10
BITMAP
60
90
90
60
ENDCHAR
STARTCHAR ogonek
ENCODING 731
SWIDTH 333 0
DWIDTH 5 0
BBX 4 4 0 -4
BITMAP
40
80
90
E0
ENDCHAR
STARTCHAR tilde
ENCODING 732
SWIDTH 333 0
DWIDTH 7 0
BBX 6 2 1 10
BITMAP
74
B8
ENDCHAR
STARTCHAR hungarumlaut
ENCODING 733
SWIDTH 333 0
DWIDTH 9 0
BBX 8 3 1 10
BITMAP
33
66
88
ENDCHAR
STARTCHAR uni02EE
ENCODING 750
SWIDTH 389 0
DWIDTH 8 0
BBX 6 5 1 9
BITMAP
6C
6C
24
48
90
ENDCHAR
STARTCHAR uni037E
ENCODING 894
SWIDTH 278 0
DWIDTH 5 0
BBX 4 12 0 -3
BITMAP
30
30
00
00
00
00
00
60
60
20
40
80
ENDCHAR
STARTCHAR tonos
ENCODING 900
SWIDTH 333 0
DWIDTH 5 0
BBX 4 3 1 11
BITMAP
30
60
80
ENDCHAR
STARTCHAR dieresistonos
ENCODING 901
SWIDTH 333 0
DWIDTH 7 0
BBX 6 6 1 10
BITMAP
0C
18
20
00
CC
CC
ENDCHAR
STARTCHAR anoteleia
ENCODING 903
SWIDTH 278 0
DWIDTH 5 0
BBX 2 2 2 5
BITMAP
C0
C0
ENDCHAR
STARTCHAR mu
ENCODING 956
SWIDTH 611 0
DWIDTH 11 0
BBX 11 12 0 -3
BITMAP
70C0
30C0
30C0
30C0
6180
6180
6380
65A0
F8C0
C000
C000
C000
ENDCHAR
STARTCHAR uni1E00
ENCODING 7680
SWIDTH 704 0
DWIDTH 13 0
BBX 12 19 0 -5
BITMAP
0100
0300
0380
0580
0580
08C0
08C0
10C0
1FC0
2060
2060
4060
4060
E0F0
0000
0300
0480
0480
0300
ENDCHAR
STARTCHAR uni1E01
ENCODING 7681
SWIDTH 574 0
DWIDTH 11 0
BBX 10 14 1 -5
BITMAP
1D80
6380
6180
C180
C300
C300
C300
6740
3980
0000
0C00
1200
1200
0C00
ENDCHAR
STARTCHAR uni1E02
ENCODING 7682
SWIDTH 722 0
DWIDTH 13 0
BBX 12 17 1 0
BITMAP
0300
0300
0000
3FC0
1830
1830
1830
1830
3060
3F80
30C0
3060
6060
6060
6040
60C0
FF00
ENDCHAR
STARTCHAR uni1E03
ENCODING 7683
SWIDTH 556 0
DWIDTH 11 0
BBX 9 17 1 0
BITMAP
3000
3000
0000
7000
3000
3000
3000
6000
6E00
7300
6180
C180
C180
C180
C300
6300
3C00
ENDCHAR
STARTCHAR uni1E04
ENCODING 7684
SWIDTH 722 0
DWIDTH 13 0
BBX 12 17 1 -3
BITMAP
3FC0
1830
1830
1830
1830
3060
3F80
30C0
3060
6060
6060
6040
60C0
FF00
0000
0C00
0C00
ENDCHAR
STARTCHAR uni1E05
ENCODING 7685
SWIDTH 556 0
DWIDTH 11 0
BBX 9 17 1 -3
BITMAP
7000
3000
3000
3000
6000
6E00
7300
6180
C180
C180
C180
C300
6300
3C00
0000
1800
1800
ENDCHAR
STARTCHAR uni1E06
ENCODING 7686
SWIDTH 722 0
DWIDTH 13 0
BBX 12 16 1 -2
BITMAP
3FC0
1830
1830
1830
1830
3060
3F80
30C0
3060
6060
6060
6040
60C0
FF00
0000
1F00
ENDCHAR
STARTCHAR uni1E07
ENCODING 7687
SWIDTH 556 0
DWIDTH 11 0
BBX 9 16 1 -2
BITMAP
7000
3000
3000
3000
6000
6E00
7300
6180
C180
C180
C180
C300
6300
3C00
0000
3E00
ENDCHAR
STARTCHAR uni1E08
ENCODING 7688
SWIDTH 722 0
DWIDTH 13 0
BBX 12 22 1 -4
BITMAP
0180
0300
0400
0000
07D0
1830
3020
6020
6020
C000
C000
C000
C000
C000
C000
6020
60C0
1F00
0400
0600
0200
0C00
ENDCHAR
STARTCHAR uni1E09
ENCODING 7689
SWIDTH 444 0
DWIDTH 9 0
BBX 8 17 1 -4
BITMAP
06
0C
10
00
1E
63
63
C0
C0
C0
C1
62
3C
10
18
08
30
ENDCHAR
STARTCHAR uni1E0A
ENCODING 7690
SWIDTH 778 0
DWIDTH 15 0
BBX 13 17 1 0
BITMAP
0300
0300
0000
3FE0
1830
1818
1818
1818
3018
3018
3018
3030
6030
6030
6060
60C0
FF00
ENDCHAR
STARTCHAR uni1E0B
ENCODING 7691
SWIDTH 611 0
DWIDTH 11 0
BBX 10 17 1 0
BITMAP
0180
0180
0000
01C0
00C0
00C0
00C0
0180
1D80
6380
6180
C180
C300
C300
C300
6740
3980
ENDCHAR
STARTCHAR uni1E0C
ENCODING 7692
SWIDTH 778 0
DWIDTH 15 0
BBX 13 17 1 -3
BITMAP
3FE0
1830
1818
1818
1818
3018
3018
3018
3030
6030
6030
6060
60C0
FF00
0000
0600
0600
ENDCHAR
STARTCHAR uni1E0D
ENCODING 7693
SWIDTH 611 0
DWIDTH 11 0
BBX 10 17 1 -3
BITMAP
01C0
00C0
00C0
00C0
0180
1D80
6380
6180
C180
C300
C300
C300
6740
3980
0000
0C00
0C00
ENDCHAR
STARTCHAR uni1E0E
ENCODING 7694
SWIDTH 778 0
DWIDTH 15 0
BBX 13 16 1 -2
BITMAP
3FE0
1830
1818
1818
1818
3018
3018
3018
3030
6030
6030
6060
60C0
FF00
0000
1F00
ENDCHAR
STARTCHAR uni1E0F
ENCODING 7695
SWIDTH 611 0
DWIDTH 11 0
BBX 10 16 1 -2
BITMAP
01C0
00C0
00C0
00C0
0180
1D80
6380
6180
C180
C300
C300
C300
6740
3980
0000
3E00
ENDCHAR
STARTCHAR uni1E10
ENCODING 7696
SWIDTH 778 0
DWIDTH 15 0
BBX 13 18 1 -4
BITMAP
3FE0
1830
1818
1818
1818
3018
3018
3018
3030
6030
6030
6060
60C0
FF00
0400
0600
0200
0C00
ENDCHAR
STARTCHAR uni1E11
ENCODING 7697
SWIDTH 611 0
DWIDTH 11 0
BBX 10 18 1 -4
BITMAP
01C0
00C0
00C0
00C0
0180
1D80
6380
6180
C180
C300
C300
C300
6740
3980
0800
0C00
0400
1800
ENDCHAR
STARTCHAR uni1E12
ENCODING 7698
SWIDTH 778 0
DWIDTH 15 0
BBX 13 18 1 -4
BITMAP
3FE0
1830
1818
1818
1818
3018
3018
3018
3030
6030
6030
6060
60C0
FF00
0000
0600
0F00
1100
ENDCHAR
STARTCHAR uni1E13
ENCODING 7699
SWIDTH 611 0
DWIDTH 11 0
BBX 10 18 1 -4
BITMAP
01C0
00C0
00C0
00C0
0180
1D80
6380
6180
C180
C300
C300
C300
6740
3980
0000
0C00
1E00
2200
ENDCHAR
STARTCHAR uni1E14
ENCODING 7700
SWIDTH 722 0
DWIDTH 13 0
BBX 12 20 1 0
BITMAP
0C00
0600
0100
0000
0F80
0000
3FF0
1830
1810
1810
1880
3080
3F00
3300
3100
6120
6020
6040
60C0
FFC0
ENDCHAR
STARTCHAR uni1E15
ENCODING 7701
SWIDTH 444 0
DWIDTH 9 0
BBX 8 15 1 0
BITMAP
60
30
08
00
3E
00
1E
63
63
C6
CC
F0
C1
62
3C
ENDCHAR
STARTCHAR uni1E16
ENCODING 7702
SWIDTH 722 0
DWIDTH 13 0
BBX 12 20 1 0
BITMAP
00C0
0180
0200
0000
0F80
0000
3FF0
1830
1810
1810
1880
3080
3F00
3300
3100
6120
6020
6040
60C0
FFC0
ENDCHAR
STARTCHAR uni1E17
ENCODING 7703
SWIDTH 444 0
DWIDTH 9 0
BBX 8 15 1 0
BITMAP
06
0C
10
00
3E
00
1E
63
63
C6
CC
F0
C1
62
3C
ENDCHAR
STARTCHAR uni1E18
ENCODING 7704
SWIDTH 722 0
DWIDTH 13 0
BBX 12 18 1 -4
BITMAP
3FF0
1830
1810
1810
1880
3080
3F00
3300
3100
6120
6020
6040
60C0
FFC0
0000
0600
0F00
1100
ENDCHAR
STARTCHAR uni1E19
ENCODING 7705
SWIDTH 444 0
DWIDTH 9 0
BBX 8 13 1 -4
BITMAP
1E
63
63
C6
CC
F0
C1
62
3C
00
18
3C
44
ENDCHAR
STARTCHAR uni1E1A
ENCODING 7706
SWIDTH 722 0
DWIDTH 13 0
BBX 12 17 1 -3
BITMAP
3FF0
1830
1810
1810
1880
3080
3F00
3300
3100
6120
6020
6040
60C0
FFC0
0000
1D00
2E00
ENDCHAR
STARTCHAR uni1E1B
ENCODING 7707
SWIDTH 444 0
DWIDTH 9 0
BBX 8 12 1 -3
BITMAP
1E
63
63
C6
CC
F0
C1
62
3C
00
3A
5C
ENDCHAR
STARTCHAR uni1E1C
ENCODING 7708
SWIDTH 722 0
DWIDTH 13 0
BBX 12 22 1 -4
BITMAP
0880
0D80
0700
0000
3FF0
1830
1810
1810
1880
3080
3F00
3300
3100
6120
6020
6040
60C0
FFC0
0400
0600
0200
0C00
ENDCHAR
STARTCHAR uni1E1D
ENCODING 7709
SWIDTH 444 0
DWIDTH 9 0
BBX 8 17 1 -4
BITMAP
22
36
1C
00
1E
63
63
C6
CC
F0
C1
62
3C
10
18
08
30
ENDCHAR
STARTCHAR uni1E1E
ENCODING 7710
SWIDTH 667 0
DWIDTH 12 0
BBX 11 17 1 0
BITMAP
0600
0600
0000
3FE0
1860
1820
1820
1880
3080
3F00
3300
3100
6100
6000
6000
6000
F000
ENDCHAR
STARTCHAR uni1E1F
ENCODING 7711
SWIDTH 333 0
DWIDTH 7 0
BBX 9 20 1 -3
BITMAP
0C00
0C00
0000
0300
0D80
0980
1800
1800
FE00
3000
3000
3000
6000
6000
6000
6000
6000
C000
C000
C000
ENDCHAR
STARTCHAR uni1E20
ENCODING 7712
SWIDTH 778 0
DWIDTH 14 0
BBX 13 16 1 0
BITMAP
07C0
0000
07C8
1838
3010
6010
6010
C000
C000
C0F8
C030
C030
C060
6060
60E0
1F20
ENDCHAR
STARTCHAR uni1E21
ENCODING 7713
SWIDTH 537 0
DWIDTH 9 0
BBX 11 17 -1 -4
BITMAP
0F80
0000
0060
0080
0780
18C0
30C0
30C0
3180
1E00
2000
3F00
4180
C180
C100
E300
7E00
ENDCHAR
STARTCHAR uni1E22
ENCODING 7714
SWIDTH 833 0
DWIDTH 15 0
BBX 14 17 1 0
BITMAP
0180
0180
0000
3C3C
1818
1818
1818
1818
3030
3FF0
3030
3030
6060
6060
6060
6060
F0F0
ENDCHAR
STARTCHAR uni1E23
ENCODING 7715
SWIDTH 611 0
DWIDTH 11 0
BBX 10 17 1 0
BITMAP
1800
1800
0000
7000
3000
3000
3000
3000
6700
6980
7180
6180
6180
C300
C300
C340
C180
ENDCHAR
STARTCHAR uni1E24
ENCODING 7716
SWIDTH 833 0
DWIDTH 15 0
BBX 14 17 1 -3
BITMAP
3C3C
1818
1818
1818
1818
3030
3FF0
3030
3030
6060
6060
6060
6060
F0F0
0000
0600
0600
ENDCHAR
STARTCHAR uni1E25
ENCODING 7717
SWIDTH 611 0
DWIDTH 11 0
BBX 10 17 1 -3
BITMAP
7000
3000
3000
3000
3000
6700
6980
7180
6180
6180
C300
C300
C340
C180
0000
0C00
0C00
ENDCHAR
STARTCHAR uni1E26
ENCODING 7718
SWIDTH 833 0
DWIDTH 15 0
BBX 14 17 1 0
BITMAP
0660
0660
0000
3C3C
1818
1818
1818
1818
3030
3FF0
3030
3030
6060
6060
6060
6060
F0F0
ENDCHAR
STARTCHAR uni1E27
ENCODING 7719
SWIDTH 611 0
DWIDTH 11 0
BBX 10 17 1 0
BITMAP
6600
6600
0000
7000
3000
3000
3000
3000
6700
6980
7180
6180
6180
C300
C300
C340
C180
ENDCHAR
STARTCHAR uni1E28
ENCODING 7720
SWIDTH 833 0
DWIDTH 15 0
BBX 14 18 1 -4
BITMAP
3C3C
1818
1818
1818
1818
3030
3FF0
3030
3030
6060
6060
6060
6060
F0F0
0200
0300
0100
0600
ENDCHAR
STARTCHAR uni1E29
ENCODING 7721
SWIDTH 611 0
DWIDTH 11 0
BBX 10 18 1 -4
BITMAP
7000
3000
3000
3000
3000
6700
6980
7180
6180
6180
C300
C300
C340
C180
0800
0C00
0400
1800
ENDCHAR
STARTCHAR uni1E2A
ENCODING 7722
SWIDTH 833 0
DWIDTH 15 0
BBX 14 18 1 -4
BITMAP
3C3C
1818
1818
1818
1818
3030
3FF0
3030
3030
6060
6060
6060
6060
F0F0
0000
0880
0D80
0700
ENDCHAR
STARTCHAR uni1E2B
ENCODING 7723
SWIDTH 611 0
DWIDTH 11 0
BBX 10 18 1 -4
BITMAP
7000
3000
3000
3000
3000
6700
6980
7180
6180
6180
C300
C300
C340
C180
0000
2200
3600
1C00
ENDCHAR
STARTCHAR uni1E2C
ENCODING 7724
SWIDTH 407 0
DWIDTH 8 0
BBX 7 17 1 -3
BITMAP
1E
0C
0C
0C
0C
18
18
18
18
30
30
30
30
78
00
74
B8
ENDCHAR
STARTCHAR uni1E2D
ENCODING 7725
SWIDTH 333 0
DWIDTH 5 0
BBX 6 16 -1 -3
BITMAP
0C
0C
00
00
38
18
18
18
18
30
30
34
38
00
74
B8
ENDCHAR
STARTCHAR uni1E2E
ENCODING 7726
SWIDTH 407 0
DWIDTH 9 0
BBX 8 21 2 0
BITMAP
06
0C
10
00
33
33
00
3C
18
18
18
18
30
30
30
30
60
60
60
60
F0
ENDCHAR
STARTCHAR uni1E2F
ENCODING 7727
SWIDTH 333 0
DWIDTH 5 0
BBX 5 16 1 0
BITMAP
18
30
40
00
D8
D8
00
E0
60
60
60
C0
C0
C0
D0
E0
ENDCHAR
STARTCHAR uni1E30
ENCODING 7728
SWIDTH 741 0
DWIDTH 14 0
BBX 13 18 1 0
BITMAP
0180
0300
0400
0000
3C38
1820
1840
1880
1900
3200
3700
3B00
3180
6180
60C0
60C0
6060
F0F8
ENDCHAR
STARTCHAR uni1E31
ENCODING 7729
SWIDTH 556 0
DWIDTH 11 0
BBX 9 18 1 0
BITMAP
0C00
1800
2000
0000
7000
3000
3000
3000
3000
6700
6980
7180
6300
6C00
C600
C600
C680
C300
ENDCHAR
STARTCHAR uni1E32
ENCODING 7730
SWIDTH 741 0
DWIDTH 14 0
BBX 13 17 1 -3
BITMAP
3C38
1820
1840
1880
1900
3200
3700
3B00
3180
6180
60C0
60C0
6060
F0F8
0000
0600
0600
ENDCHAR
STARTCHAR uni1E33
ENCODING 7731
SWIDTH 556 0
DWIDTH 11 0
BBX 9 17 1 -3
BITMAP
7000
3000
3000
3000
3000
6700
6980
7180
6300
6C00
C600
C600
C680
C300
0000
1800
1800
ENDCHAR
STARTCHAR uni1E34
ENCODING 7732
SWIDTH 741 0
DWIDTH 14 0
BBX 13 16 1 -2
BITMAP
3C38
1820
1840
1880
1900
3200
3700
3B00
3180
6180
60C0
60C0
6060
F0F8
0000
0F80
ENDCHAR
STARTCHAR uni1E35
ENCODING 7733
SWIDTH 556 0
DWIDTH 11 0
BBX 9 16 1 -2
BITMAP
7000
3000
3000
3000
3000
6700
6980
7180
6300
6C00
C600
C600
C680
C300
0000
3E00
ENDCHAR
STARTCHAR uni1E36
ENCODING 7734
SWIDTH 667 0
DWIDTH 12 0
BBX 11 17 1 -3
BITMAP
3C00
1800
1800
1800
1800
3000
3000
3000
3000
6020
6020
6040
60C0
FFC0
0000
0C00
0C00
ENDCHAR
STARTCHAR uni1E37
ENCODING 7735
SWIDTH 333 0
DWIDTH 5 0
BBX 4 17 1 -3
BITMAP
70
30
30
30
30
60
60
60
60
C0
C0
C0
D0
E0
00
60
60
ENDCHAR
STARTCHAR uni1E38
ENCODING 7736
SWIDTH 667 0
DWIDTH 12 0
BBX 11 19 1 -3
BITMAP
3E00
0000
3C00
1800
1800
1800
1800
3000
3000
3000
3000
6020
6020
6040
60C0
FFC0
0000
0C00
0C00
ENDCHAR
STARTCHAR uni1E39
ENCODING 7737
SWIDTH 333 0
DWIDTH 5 0
BBX 5 19 1 -3
BITMAP
F8
00
70
30
30
30
30
60
60
60
60
C0
C0
C0
D0
E0
00
60
60
ENDCHAR
STARTCHAR uni1E3A
ENCODING 7738
SWIDTH 667 0
DWIDTH 12 0
BBX 11 16 1 -2
BITMAP
3C00
1800
1800
1800
1800
3000
3000
3000
3000
6020
6020
6040
60C0
FFC0
0000
1F00
ENDCHAR
STARTCHAR uni1E3B
ENCODING 7739
SWIDTH 333 0
DWIDTH 5 0
BBX 5 16 0 -2
BITMAP
38
18
18
18
18
30
30
30
30
60
60
60
68
70
00
F8
ENDCHAR
STARTCHAR uni1E3C
ENCODING 7740
SWIDTH 667 0
DWIDTH 12 0
BBX 11 18 1 -4
BITMAP
3C00
1800
1800
1800
1800
3000
3000
3000
3000
6020
6020
6040
60C0
FFC0
0000
0C00
1E00
2200
ENDCHAR
STARTCHAR uni1E3D
ENCODING 7741
SWIDTH 333 0
DWIDTH 5 0
BBX 5 18 0 -4
BITMAP
38
18
18
18
18
30
30
30
30
60
60
60
68
70
00
30
78
88
ENDCHAR
STARTCHAR uni1E3E
ENCODING 7742
SWIDTH 944 0
DWIDTH 18 0
BBX 17 18 1 0
BITMAP
003000
006000
008000
000000
3C0780
1C0700
1C0B00
1C0B00
1C1300
261600
262600
262600
264600
464C00
438C00
438C00
430C00
E31E00
ENDCHAR
STARTCHAR uni1E3F
ENCODING 7743
SWIDTH 889 0
DWIDTH 17 0
BBX 16 13 1 0
BITMAP
0060
00C0
0100
0000
E71C
69A6
71C6
6186
6186
C30C
C30C
C30D
C306
ENDCHAR
STARTCHAR uni1E40
ENCODING 7744
SWIDTH 944 0
DWIDTH 18 0
BBX 17 17 1 0
BITMAP
00C000
00C000
000000
3C0780
1C0700
1C0B00
1C0B00
1C1300
261600
262600
262600
264600
464C00
438C00
438C00
430C00
E31E00
ENDCHAR
STARTCHAR uni1E41
ENCODING 7745
SWIDTH 889 0
DWIDTH 17 0
BBX 16 12 1 0
BITMAP
0180
0180
0000
E71C
69A6
71C6
6186
6186
C30C
C30C
C30D
C306
ENDCHAR
STARTCHAR uni1E42
ENCODING 7746
SWIDTH 944 0
DWIDTH 18 0
BBX 17 17 1 -3
BITMAP
3C0780
1C0700
1C0B00
1C0B00
1C1300
261600
262600
262600
264600
464C00
438C00
438C00
430C00
E31E00
000000
018000
018000
ENDCHAR
STARTCHAR uni1E43
ENCODING 7747
SWIDTH 889 0
DWIDTH 17 0
BBX 16 12 1 -3
BITMAP
E71C
69A6
71C6
6186
6186
C30C
C30C
C30D
C306
0000
0180
0180
ENDCHAR
STARTCHAR uni1E44
ENCODING 7748
SWIDTH 815 0
DWIDTH 15 0
BBX 14 17 1 0
BITMAP
0300
0300
0000
3C1C
1C08
1608
1608
1308
3318
2190
2190
20D0
60F0
4060
4060
4020
E020
ENDCHAR
STARTCHAR uni1E45
ENCODING 7749
SWIDTH 611 0
DWIDTH 11 0
BBX 10 12 1 0
BITMAP
0C00
0C00
0000
E700
6980
7180
6180
6180
C300
C300
C340
C180
ENDCHAR
STARTCHAR uni1E46
ENCODING 7750
SWIDTH 815 0
DWIDTH 15 0
BBX 14 17 1 -3
BITMAP
3C1C
1C08
1608
1608
1308
3318
2190
2190
20D0
60F0
4060
4060
4020
E020
0000
0600
0600
ENDCHAR
STARTCHAR uni1E47
ENCODING 7751
SWIDTH 611 0
DWIDTH 11 0
BBX 10 12 1 -3
BITMAP
E700
6980
7180
6180
6180
C300
C300
C340
C180
0000
0C00
0C00
ENDCHAR
STARTCHAR uni1E48
ENCODING 7752
SWIDTH 815 0
DWIDTH 15 0
BBX 14 16 1 -2
BITMAP
3C1C
1C08
1608
1608
1308
3318
2190
2190
20D0
60F0
4060
4060
4020
E020
0000
0F80
ENDCHAR
STARTCHAR uni1E49
ENCODING 7753
SWIDTH 611 0
DWIDTH 11 0
BBX 10 11 1 -2
BITMAP
E700
6980
7180
6180
6180
C300
C300
C340
C180
0000
3E00
ENDCHAR
STARTCHAR uni1E4A
ENCODING 7754
SWIDTH 815 0
DWIDTH 15 0
BBX 14 18 1 -4
BITMAP
3C1C
1C08
1608
1608
1308
3318
2190
2190
20D0
60F0
4060
4060
4020
E020
0000
0600
0F00
1100
ENDCHAR
STARTCHAR uni1E4B
ENCODING 7755
SWIDTH 611 0
DWIDTH 11 0
BBX 10 13 1 -4
BITMAP
E700
6980
7180
6180
6180
C300
C300
C340
C180
0000
0C00
1E00
2200
ENDCHAR
STARTCHAR uni1E4C
ENCODING 7756
SWIDTH 778 0
DWIDTH 14 0
BBX 13 21 1 0
BITMAP
00C0
0180
0200
0000
03A0
05C0
0000
07C0
1830
3030
6018
6018
C018
C018
C018
C018
C030
C030
6060
60C0
1F00
ENDCHAR
STARTCHAR uni1E4D
ENCODING 7757
SWIDTH 500 0
DWIDTH 11 0
BBX 9 16 1 0
BITMAP
0300
0600
0800
0000
0E80
1700
0000
1E00
6300
6180
C180
C180
C180
C300
6300
3C00
ENDCHAR
STARTCHAR uni1E4E
ENCODING 7758
SWIDTH 778 0
DWIDTH 14 0
BBX 13 20 1 0
BITMAP
0CC0
0CC0
0000
03A0
05C0
0000
07C0
1830
3030
6018
6018
C018
C018
C018
C018
C030
C030
6060
60C0
1F00
ENDCHAR
STARTCHAR uni1E4F
ENCODING 7759
SWIDTH 500 0
DWIDTH 11 0
BBX 9 15 1 0
BITMAP
3300
3300
0000
0E80
1700
0000
1E00
6300
6180
C180
C180
C180
C300
6300
3C00
ENDCHAR
STARTCHAR uni1E50
ENCODING 7760
SWIDTH 778 0
DWIDTH 14 0
BBX 13 20 1 0
BITMAP
0C00
0600
0100
0000
07C0
0000
07C0
1830
3030
6018
6018
C018
C018
C018
C018
C030
C030
6060
60C0
1F00
ENDCHAR
STARTCHAR uni1E51
ENCODING 7761
SWIDTH 500 0
DWIDTH 11 0
BBX 9 15 1 0
BITMAP
3000
1800
0400
0000
3E00
0000
1E00
6300
6180
C180
C180
C180
C300
6300
3C00
ENDCHAR
STARTCHAR uni1E52
ENCODING 7762
SWIDTH 778 0
DWIDTH 14 0
BBX 13 20 1 0
BITMAP
00C0
0180
0200
0000
07C0
0000
07C0
1830
3030
6018
6018
C018
C018
C018
C018
C030
C030
6060
60C0
1F00
ENDCHAR
STARTCHAR uni1E53
ENCODING 7763
SWIDTH 500 0
DWIDTH 11 0
BBX 9 15 1 0
BITMAP
0300
0600
0800
0000
3E00
0000
1E00
6300
6180
C180
C180
C180
C300
6300
3C00
ENDCHAR
STARTCHAR uni1E54
ENCODING 7764
SWIDTH 667 0
DWIDTH 13 0
BBX 12 18 1 0
BITMAP
00C0
0180
0200
0000
3FC0
1830
1830
1830
1830
3060
3F80
3000
3000
6000
6000
6000
6000
F000
ENDCHAR
STARTCHAR uni1E55
ENCODING 7765
SWIDTH 574 0
DWIDTH 11 0
BBX 11 17 -1 -4
BITMAP
0180
0300
0400
0000
3B80
1CC0
1860
1860
3060
3060
30C0
38C0
3700
6000
6000
6000
F000
ENDCHAR
STARTCHAR uni1E56
ENCODING 7766
SWIDTH 667 0
DWIDTH 13 0
BBX 12 17 1 0
BITMAP
0300
0300
0000
3FC0
1830
1830
1830
1830
3060
3F80
3000
3000
6000
6000
6000
6000
F000
ENDCHAR
STARTCHAR uni1E57
ENCODING 7767
SWIDTH 574 0
DWIDTH 11 0
BBX 11 16 -1 -4
BITMAP
0600
0600
0000
3B80
1CC0
1860
1860
3060
3060
30C0
38C0
3700
6000
6000
6000
F000
ENDCHAR
STARTCHAR uni1E58
ENCODING 7768
SWIDTH 741 0
DWIDTH 14 0
BBX 13 17 1 0
BITMAP
0300
0300
0000
3FC0
1830
1830
1830
1830
3060
3F80
3180
30C0
60C0
60C0
60C0
60C8
F070
ENDCHAR
STARTCHAR uni1E59
ENCODING 7769
SWIDTH 444 0
DWIDTH 7 0
BBX 7 12 1 0
BITMAP
30
30
00
EE
76
60
60
60
C0
C0
C0
C0
ENDCHAR
STARTCHAR uni1E5A
ENCODING 7770
SWIDTH 741 0
DWIDTH 14 0
BBX 13 17 1 -3
BITMAP
3FC0
1830
1830
1830
1830
3060
3F80
3180
30C0
60C0
60C0
60C0
60C8
F070
0000
0600
0600
ENDCHAR
STARTCHAR uni1E5B
ENCODING 7771
SWIDTH 444 0
DWIDTH 7 0
BBX 7 12 1 -3
BITMAP
EE
76
60
60
60
C0
C0
C0
C0
00
60
60
ENDCHAR
STARTCHAR uni1E5C
ENCODING 7772
SWIDTH 741 0
DWIDTH 14 0
BBX 13 19 1 -3
BITMAP
0F80
0000
3FC0
1830
1830
1830
1830
3060
3F80
3180
30C0
60C0
60C0
60C0
60C8
F070
0000
0600
0600
ENDCHAR
STARTCHAR uni1E5D
ENCODING 7773
SWIDTH 444 0
DWIDTH 7 0
BBX 7 14 1 -3
BITMAP
7C
00
EE
76
60
60
60
C0
C0
C0
C0
00
60
60
ENDCHAR
STARTCHAR uni1E5E
ENCODING 7774
SWIDTH 741 0
DWIDTH 14 0
BBX 13 16 1 -2
BITMAP
3FC0
1830
1830
1830
1830
3060
3F80
3180
30C0
60C0
60C0
60C0
60C8
F070
0000
0F80
ENDCHAR
STARTCHAR uni1E5F
ENCODING 7775
SWIDTH 444 0
DWIDTH 7 0
BBX 8 11 0 -2
BITMAP
77
3B
30
30
30
60
60
60
60
00
F8
ENDCHAR
STARTCHAR uni1E60
ENCODING 7776
SWIDTH 667 0
DWIDTH 12 0
BBX 11 17 1 0
BITMAP
0300
0300
0000
07A0
1860
1040
2040
3000
3800
3F00
0FC0
01C0
00C0
4040
4080
E180
9E00
ENDCHAR
STARTCHAR uni1E61
ENCODING 7777
SWIDTH 444 0
DWIDTH 8 0
BBX 8 12 0 0
BITMAP
0C
0C
00
1E
23
63
70
3C
0E
C6
C4
78
ENDCHAR
STARTCHAR uni1E62
ENCODING 7778
SWIDTH 667 0
DWIDTH 12 0
BBX 11 17 1 -3
BITMAP
07A0
1860
1040
2040
3000
3800
3F00
0FC0
01C0
00C0
4040
4080
E180
9E00
0000
0C00
0C00
ENDCHAR
STARTCHAR uni1E63
ENCODING 7779
SWIDTH 444 0
DWIDTH 8 0
BBX 8 12 0 -3
BITMAP
1E
23
63
70
3C
0E
C6
C4
78
00
30
30
ENDCHAR
STARTCHAR uni1E64
ENCODING 7780
SWIDTH 667 0
DWIDTH 12 0
BBX 11 21 1 0
BITMAP
0300
0300
0000
00C0
0180
0200
0000
07A0
1860
1040
2040
3000
3800
3F00
0FC0
01C0
00C0
4040
4080
E180
9E00
ENDCHAR
STARTCHAR uni1E65
ENCODING 7781
SWIDTH 444 0
DWIDTH 8 0
BBX 8 16 0 0
BITMAP
0C
0C
00
03
06
08
00
1E
23
63
70
3C
0E
C6
C4
78
ENDCHAR
STARTCHAR uni1E66
ENCODING 7782
SWIDTH 667 0
DWIDTH 12 0
BBX 11 21 1 0
BITMAP
0300
0300
0000
0120
00C0
0080
0000
07A0
1860
1040
2040
3000
3800
3F00
0FC0
01C0
00C0
4040
4080
E180
9E00
ENDCHAR
STARTCHAR uni1E67
ENCODING 7783
SWIDTH 444 0
DWIDTH 8 0
BBX 8 17 0 0
BITMAP
0C
0C
00
11
12
0C
08
00
1E
23
63
70
3C
0E
C6
C4
78
ENDCHAR
STARTCHAR uni1E68
ENCODING 7784
SWIDTH 667 0
DWIDTH 12 0
BBX 11 20 1 -3
BITMAP
0600
0600
0000
07A0
1860
1040
2040
3000
3800
3F00
0FC0
01C0
00C0
4040
4080
E180
9E00
0000
0C00
0C00
ENDCHAR
STARTCHAR uni1E69
ENCODING 7785
SWIDTH 444 0
DWIDTH 8 0
BBX 8 15 0 -3
BITMAP
18
18
00
1E
23
63
70
3C
0E
C6
C4
78
00
30
30
ENDCHAR
STARTCHAR uni1E6A
ENCODING 7786
SWIDTH 685 0
DWIDTH 12 0
BBX 12 17 1 0
BITMAP
0600
0600
0000
FFF0
C630
8610
8610
0600
0C00
0C00
0C00
0C00
1800
1800
1800
1800
3C00
ENDCHAR
STARTCHAR uni1E6B
ENCODING 7787
SWIDTH 352 0
DWIDTH 6 0
BBX 7 15 0 0
BITMAP
18
18
00
18
18
18
FE
30
30
30
60
60
60
68
70
ENDCHAR
STARTCHAR uni1E6C
ENCODING 7788
SWIDTH 685 0
DWIDTH 12 0
BBX 12 17 1 -3
BITMAP
FFF0
C630
8610
8610
0600
0C00
0C00
0C00
0C00
1800
1800
1800
1800
3C00
0000
0C00
0C00
ENDCHAR
STARTCHAR uni1E6D
ENCODING 7789
SWIDTH 352 0
DWIDTH 6 0
BBX 7 15 0 -3
BITMAP
18
18
18
FE
30
30
30
60
60
60
68
70
00
30
30
ENDCHAR
STARTCHAR uni1E6E
ENCODING 7790
SWIDTH 685 0
DWIDTH 12 0
BBX 12 16 1 -2
BITMAP
FFF0
C630
8610
8610
0600
0C00
0C00
0C00
0C00
1800
1800
1800
1800
3C00
0000
3E00
ENDCHAR
STARTCHAR uni1E6F
ENCODING 7791
SWIDTH 352 0
DWIDTH 6 0
BBX 7 14 0 -2
BITMAP
18
18
18
FE
30
30
30
60
60
60
68
70
00
F8
ENDCHAR
STARTCHAR uni1E70
ENCODING 7792
SWIDTH 685 0
DWIDTH 12 0
BBX 12 18 1 -4
BITMAP
FFF0
C630
8610
8610
0600
0C00
0C00
0C00
0C00
1800
1800
1800
1800
3C00
0000
0C00
1E00
2200
ENDCHAR
STARTCHAR uni1E71
ENCODING 7793
SWIDTH 352 0
DWIDTH 6 0
BBX 7 16 0 -4
BITMAP
18
18
18
FE
30
30
30
60
60
60
68
70
00
30
78
88
ENDCHAR
STARTCHAR uni1E72
ENCODING 7794
SWIDTH 815 0
DWIDTH 15 0
BBX 13 17 2 -3
BITMAP
7C38
3010
3010
3010
6020
6020
6020
6020
C020
C040
C040
C040
6080
3F00
0000
3300
3300
ENDCHAR
STARTCHAR uni1E73
ENCODING 7795
SWIDTH 611 0
DWIDTH 11 0
BBX 10 12 1 -3
BITMAP
E180
6180
6180
6180
C300
C300
C700
CB40
7180
0000
3300
3300
ENDCHAR
STARTCHAR uni1E74
ENCODING 7796
SWIDTH 815 0
DWIDTH 15 0
BBX 13 17 2 -3
BITMAP
7C38
3010
3010
3010
6020
6020
6020
6020
C020
C040
C040
C040
6080
3F00
0000
1D00
2E00
ENDCHAR
STARTCHAR uni1E75
ENCODING 7797
SWIDTH 611 0
DWIDTH 11 0
BBX 10 12 1 -3
BITMAP
E180
6180
6180
6180
C300
C300
C700
CB40
7180
0000
1D00
2E00
ENDCHAR
STARTCHAR uni1E76
ENCODING 7798
SWIDTH 815 0
DWIDTH 15 0
BBX 13 18 2 -4
BITMAP
7C38
3010
3010
3010
6020
6020
6020
6020
C020
C040
C040
C040
6080
3F00
0000
0C00
1E00
2200
ENDCHAR
STARTCHAR uni1E77
ENCODING 7799
SWIDTH 611 0
DWIDTH 11 0
BBX 10 13 1 -4
BITMAP
E180
6180
6180
6180
C300
C300
C700
CB40
7180
0000
0C00
1E00
2200
ENDCHAR
STARTCHAR uni1E78
ENCODING 7800
SWIDTH 815 0
DWIDTH 15 0
BBX 13 21 2 0
BITMAP
0180
0300
0400
0000
0E80
1700
0000
7C38
3010
3010
3010
6020
6020
6020
6020
C020
C040
C040
C040
6080
3F00
ENDCHAR
STARTCHAR uni1E79
ENCODING 7801
SWIDTH 611 0
DWIDTH 11 0
BBX 10 16 1 0
BITMAP
0300
0600
0800
0000
1D00
2E00
0000
E180
6180
6180
6180
C300
C300
C700
CB40
7180
ENDCHAR
STARTCHAR uni1E7A
ENCODING 7802
SWIDTH 815 0
DWIDTH 15 0
BBX 13 19 2 0
BITMAP
1980
1980
0000
0F80
0000
7C38
3010
3010
3010
6020
6020
6020
6020
C020
C040
C040
C040
6080
3F00
ENDCHAR
STARTCHAR uni1E7B
ENCODING 7803
SWIDTH 611 0
DWIDTH 11 0
BBX 10 14 1 0
BITMAP
3300
3300
0000
3E00
0000
E180
6180
6180
6180
C300
C300
C700
CB40
7180
ENDCHAR
STARTCHAR uni1E7C
ENCODING 7804
SWIDTH 704 0
DWIDTH 12 0
BBX 12 17 1 0
BITMAP
0E80
1700
0000
F070
6020
6040
6040
6080
3080
3100
3100
3200
1A00
1C00
1C00
1800
1800
ENDCHAR
STARTCHAR uni1E7D
ENCODING 7805
SWIDTH 519 0
DWIDTH 10 0
BBX 8 12 1 0
BITMAP
3A
5C
00
E7
63
61
61
C1
C2
C2
C4
78
ENDCHAR
STARTCHAR uni1E7E
ENCODING 7806
SWIDTH 704 0
DWIDTH 12 0
BBX 12 17 1 -3
BITMAP
F070
6020
6040
6040
6080
3080
3100
3100
3200
1A00
1C00
1C00
1800
1800
0000
0C00
0C00
ENDCHAR
STARTCHAR uni1E7F
ENCODING 7807
SWIDTH 519 0
DWIDTH 10 0
BBX 8 12 1 -3
BITMAP
E7
63
61
61
C1
C2
C2
C4
78
00
30
30
ENDCHAR
STARTCHAR Wgrave
ENCODING 7808
SWIDTH 926 0
DWIDTH 17 0
BBX 17 18 1 0
BITMAP
060000
030000
008000
000000
F1E380
60C100
60C100
61C200
61C200
316200
326400
326400
326400
1C3800
1C3800
1C3800
183000
183000
ENDCHAR
STARTCHAR wgrave
ENCODING 7809
SWIDTH 778 0
DWIDTH 15 0
BBX 13 13 1 0
BITMAP
0C00
0600
0100
0000
E338
6318
6308
6308
C608
C610
C610
CA20
71C0
ENDCHAR
STARTCHAR Wacute
ENCODING 7810
SWIDTH 926 0
DWIDTH 17 0
BBX 17 18 1 0
BITMAP
006000
00C000
010000
000000
F1E380
60C100
60C100
61C200
61C200
316200
326400
326400
326400
1C3800
1C3800
1C3800
183000
183000
ENDCHAR
STARTCHAR wacute
ENCODING 7811
SWIDTH 778 0
DWIDTH 15 0
BBX 13 13 1 0
BITMAP
00C0
0180
0200
0000
E338
6318
6308
6308
C608
C610
C610
CA20
71C0
ENDCHAR
STARTCHAR Wdieresis
ENCODING 7812
SWIDTH 926 0
DWIDTH 17 0
BBX 17 17 1 0
BITMAP
066000
066000
000000
F1E380
60C100
60C100
61C200
61C200
316200
326400
326400
326400
1C3800
1C3800
1C3800
183000
183000
ENDCHAR
STARTCHAR wdieresis
ENCODING 7813
SWIDTH 778 0
DWIDTH 15 0
BBX 13 12 1 0
BITMAP
0CC0
0CC0
0000
E338
6318
6308
6308
C608
C610
C610
CA20
71C0
ENDCHAR
STARTCHAR uni1E86
ENCODING 7814
SWIDTH 926 0
DWIDTH 17 0
BBX 17 17 1 0
BITMAP
018000
018000
000000
F1E380
60C100
60C100
61C200
61C200
316200
326400
326400
326400
1C3800
1C3800
1C3800
183000
183000
ENDCHAR
STARTCHAR uni1E87
ENCODING 7815
SWIDTH 778 0
DWIDTH 15 0
BBX 13 12 1 0
BITMAP
0300
0300
0000
E338
6318
6308
6308
C608
C610
C610
CA20
71C0
ENDCHAR
STARTCHAR uni1E88
ENCODING 7816
SWIDTH 926 0
DWIDTH 17 0
BBX 17 17 1 -3
BITMAP
F1E380
60C100
60C100
61C200
61C200
316200
326400
326400
326400
1C3800
1C3800
1C3800
183000
183000
000000
018000
018000
ENDCHAR
STARTCHAR uni1E89
ENCODING 7817
SWIDTH 778 0
DWIDTH 15 0
BBX 13 12 1 -3
BITMAP
E338
6318
6308
6308
C608
C610
C610
CA20
71C0
0000
0600
0600
ENDCHAR
STARTCHAR uni1E8A
ENCODING 7818
SWIDTH 704 0
DWIDTH 13 0
BBX 14 17 0 0
BITMAP
0180
0180
0000
1E3C
0C18
0C10
0620
0640
0380
0300
0380
0580
08C0
10C0
2060
6060
F0F0
ENDCHAR
STARTCHAR uni1E8B
ENCODING 7819
SWIDTH 500 0
DWIDTH 11 0
BBX 11 12 0 0
BITMAP
0600
0600
0000
1860
38C0
0D00
0E00
0400
0E00
1600
E380
C300
ENDCHAR
STARTCHAR uni1E8C
ENCODING 7820
SWIDTH 704 0
DWIDTH 13 0
BBX 14 17 0 0
BITMAP
0660
0660
0000
1E3C
0C18
0C10
0620
0640
0380
0300
0380
0580
08C0
10C0
2060
6060
F0F0
ENDCHAR
STARTCHAR uni1E8D
ENCODING 7821
SWIDTH 500 0
DWIDTH 11 0
BBX 11 12 0 0
BITMAP
1980
1980
0000
1860
38C0
0D00
0E00
0400
0E00
1600
E380
C300
ENDCHAR
STARTCHAR uni1E8E
ENCODING 7822
SWIDTH 685 0
DWIDTH 14 0
BBX 13 17 2 0
BITMAP
0600
0600
0000
F078
6030
3020
3040
1880
1900
0E00
0C00
0C00
1800
1800
1800
1800
3C00
ENDCHAR
STARTCHAR uni1E8F
ENCODING 7823
SWIDTH 500 0
DWIDTH 9 0
BBX 10 15 -1 -3
BITMAP
0C00
0C00
0000
30C0
7040
1880
1880
0D00
0D00
0600
0600
0400
0800
C800
F000
ENDCHAR
STARTCHAR uni1E90
ENCODING 7824
SWIDTH 667 0
DWIDTH 13 0
BBX 12 18 1 0
BITMAP
0300
0780
0880
0000
3FF0
3070
60E0
41C0
0180
0300
0700
0E00
0C00
1800
3820
7060
E0C0
FFC0
ENDCHAR
STARTCHAR uni1E91
ENCODING 7825
SWIDTH 463 0
DWIDTH 9 0
BBX 9 13 0 0
BITMAP
0600
0F00
1100
0000
3C80
4F80
0300
0600
0C00
1800
3000
7900
9E00
ENDCHAR
STARTCHAR uni1E92
ENCODING 7826
SWIDTH 667 0
DWIDTH 13 0
BBX 12 17 1 -3
BITMAP
3FF0
3070
60E0
41C0
0180
0300
0700
0E00
0C00
1800
3820
7060
E0C0
FFC0
0000
0C00
0C00
ENDCHAR
STARTCHAR uni1E93
ENCODING 7827
SWIDTH 463 0
DWIDTH 9 0
BBX 9 12 0 -3
BITMAP
3C80
4F80
0300
0600
0C00
1800
3000
7900
9E00
0000
1800
1800
ENDCHAR
STARTCHAR uni1E94
ENCODING 7828
SWIDTH 667 0
DWIDTH 13 0
BBX 12 16 1 -2
BITMAP
3FF0
3070
60E0
41C0
0180
0300
0700
0E00
0C00
1800
3820
7060
E0C0
FFC0
0000
1F00
ENDCHAR
STARTCHAR uni1E95
ENCODING 7829
SWIDTH 463 0
DWIDTH 9 0
BBX 9 11 0 -2
BITMAP
3C80
4F80
0300
0600
0C00
1800
3000
7900
9E00
0000
3E00
ENDCHAR
STARTCHAR uni1E96
ENCODING 7830
SWIDTH 611 0
DWIDTH 11 0
BBX 10 16 1 -2
BITMAP
7000
3000
3000
3000
3000
6700
6980
7180
6180
6180
C300
C300
C340
C180
0000
3E00
ENDCHAR
STARTCHAR uni1E97
ENCODING 7831
SWIDTH 352 0
DWIDTH 6 0
BBX 7 15 0 0
BITMAP
66
66
00
18
18
18
FE
30
30
30
60
60
60
68
70
ENDCHAR
STARTCHAR uni1E98
ENCODING 7832
SWIDTH 778 0
DWIDTH 15 0
BBX 13 14 1 0
BITMAP
0300
0480
0480
0300
0000
E338
6318
6308
6308
C608
C610
C610
CA20
71C0
ENDCHAR
STARTCHAR uni1E99
ENCODING 7833
SWIDTH 500 0
DWIDTH 9 0
BBX 10 17 -1 -3
BITMAP
0C00
1200
1200
0C00
0000
30C0
7040
1880
1880
0D00
0D00
0600
0600
0400
0800
C800
F000
ENDCHAR
STARTCHAR uni1EA0
ENCODING 7840
SWIDTH 704 0
DWIDTH 13 0
BBX 12 17 0 -3
BITMAP
0100
0300
0380
0580
0580
08C0
08C0
10C0
1FC0
2060
2060
4060
4060
E0F0
0000
0300
0300
ENDCHAR
STARTCHAR uni1EA1
ENCODING 7841
SWIDTH 574 0
DWIDTH 11 0
BBX 10 12 1 -3
BITMAP
1D80
6380
6180
C180
C300
C300
C300
6740
3980
0000
0C00
0C00
ENDCHAR
STARTCHAR uni1EA4
ENCODING 7844
SWIDTH 704 0
DWIDTH 13 0
BBX 12 22 0 0
BITMAP
00C0
0180
0200
0000
0180
03C0
0440
0000
0100
0300
0380
0580
0580
08C0
08C0
10C0
1FC0
2060
2060
4060
4060
E0F0
ENDCHAR
STARTCHAR uni1EA5
ENCODING 7845
SWIDTH 574 0
DWIDTH 11 0
BBX 10 17 1 0
BITMAP
0180
0300
0400
0000
0200
0700
0900
0000
1D80
6380
6180
C180
C300
C300
C300
6740
3980
ENDCHAR
STARTCHAR uni1EA6
ENCODING 7846
SWIDTH 704 0
DWIDTH 13 0
BBX 12 22 0 0
BITMAP
0C00
0600
0100
0000
0180
03C0
0440
0000
0100
0300
0380
0580
0580
08C0
08C0
10C0
1FC0
2060
2060
4060
4060
E0F0
ENDCHAR
STARTCHAR uni1EA7
ENCODING 7847
SWIDTH 574 0
DWIDTH 11 0
BBX 10 17 1 0
BITMAP
1800
0C00
0200
0000
0200
0700
0900
0000
1D80
6380
6180
C180
C300
C300
C300
6740
3980
ENDCHAR
STARTCHAR uni1EAA
ENCODING 7850
SWIDTH 704 0
DWIDTH 13 0
BBX 12 21 0 0
BITMAP
0740
0B80
0000
0180
03C0
0440
0000
0100
0300
0380
0580
0580
08C0
08C0
10C0
1FC0
2060
2060
4060
4060
E0F0
ENDCHAR
STARTCHAR uni1EAB
ENCODING 7851
SWIDTH 574 0
DWIDTH 11 0
BBX 10 16 1 0
BITMAP
0E80
1700
0000
0200
0700
0900
0000
1D80
6380
6180
C180
C300
C300
C300
6740
3980
ENDCHAR
STARTCHAR uni1EAC
ENCODING 7852
SWIDTH 704 0
DWIDTH 13 0
BBX 12 21 0 -3
BITMAP
0300
0780
0880
0000
0100
0300
0380
0580
0580
08C0
08C0
10C0
1FC0
2060
2060
4060
4060
E0F0
0000
0300
0300
ENDCHAR
STARTCHAR uni1EAD
ENCODING 7853
SWIDTH 574 0
DWIDTH 11 0
BBX 10 16 1 -3
BITMAP
0600
0F00
1100
0000
1D80
6380
6180
C180
C300
C300
C300
6740
3980
0000
0C00
0C00
ENDCHAR
STARTCHAR uni1EAE
ENCODING 7854
SWIDTH 704 0
DWIDTH 13 0
BBX 12 22 0 0
BITMAP
0180
0300
0400
0000
0880
0D80
0700
0000
0100
0300
0380
0580
0580
08C0
08C0
10C0
1FC0
2060
2060
4060
4060
E0F0
ENDCHAR
STARTCHAR uni1EAF
ENCODING 7855
SWIDTH 574 0
DWIDTH 11 0
BBX 10 17 1 0
BITMAP
0300
0600
0800
0000
1100
1B00
0E00
0000
1D80
6380
6180
C180
C300
C300
C300
6740
3980
ENDCHAR
STARTCHAR uni1EB0
ENCODING 7856
SWIDTH 704 0
DWIDTH 13 0
BBX 12 22 0 0
BITMAP
1800
0C00
0200
0000
0880
0D80
0700
0000
0100
0300
0380
0580
0580
08C0
08C0
10C0
1FC0
2060
2060
4060
4060
E0F0
ENDCHAR
STARTCHAR uni1EB1
ENCODING 7857
SWIDTH 574 0
DWIDTH 11 0
BBX 10 17 1 0
BITMAP
3000
1800
0400
0000
1100
1B00
0E00
0000
1D80
6380
6180
C180
C300
C300
C300
6740
3980
ENDCHAR
STARTCHAR uni1EB4
ENCODING 7860
SWIDTH 704 0
DWIDTH 13 0
BBX 12 21 0 0
BITMAP
0740
0B80
0000
0880
0D80
0700
0000
0100
0300
0380
0580
0580
08C0
08C0
10C0
1FC0
2060
2060
4060
4060
E0F0
ENDCHAR
STARTCHAR uni1EB5
ENCODING 7861
SWIDTH 574 0
DWIDTH 11 0
BBX 10 16 1 0
BITMAP
0E80
1700
0000
1100
1B00
0E00
0000
1D80
6380
6180
C180
C300
C300
C300
6740
3980
ENDCHAR
STARTCHAR uni1EB6
ENCODING 7862
SWIDTH 704 0
DWIDTH 13 0
BBX 12 21 0 -3
BITMAP
0880
0D80
0700
0000
0100
0300
0380
0580
0580
08C0
08C0
10C0
1FC0
2060
2060
4060
4060
E0F0
0000
0300
0300
ENDCHAR
STARTCHAR uni1EB7
ENCODING 7863
SWIDTH 574 0
DWIDTH 11 0
BBX 10 16 1 -3
BITMAP
1100
1B00
0E00
0000
1D80
6380
6180
C180
C300
C300
C300
6740
3980
0000
0C00
0C00
ENDCHAR
STARTCHAR uni1EB8
ENCODING 7864
SWIDTH 722 0
DWIDTH 13 0
BBX 12 17 1 -3
BITMAP
3FF0
1830
1810
1810
1880
3080
3F00
3300
3100
6120
6020
6040
60C0
FFC0
0000
0C00
0C00
ENDCHAR
STARTCHAR uni1EB9
ENCODING 7865
SWIDTH 444 0
DWIDTH 9 0
BBX 8 12 1 -3
BITMAP
1E
63
63
C6
CC
F0
C1
62
3C
00
18
18
ENDCHAR
STARTCHAR uni1EBC
ENCODING 7868
SWIDTH 722 0
DWIDTH 13 0
BBX 12 17 1 0
BITMAP
0740
0B80
0000
3FF0
1830
1810
1810
1880
3080
3F00
3300
3100
6120
6020
6040
60C0
FFC0
ENDCHAR
STARTCHAR uni1EBD
ENCODING 7869
SWIDTH 444 0
DWIDTH 9 0
BBX 8 12 1 0
BITMAP
1D
2E
00
1E
63
63
C6
CC
F0
C1
62
3C
ENDCHAR
STARTCHAR uni1EBE
ENCODING 7870
SWIDTH 722 0
DWIDTH 13 0
BBX 12 22 1 0
BITMAP
00C0
0180
0200
0000
0180
03C0
0440
0000
3FF0
1830
1810
1810
1880
3080
3F00
3300
3100
6120
6020
6040
60C0
FFC0
ENDCHAR
STARTCHAR uni1EBF
ENCODING 7871
SWIDTH 444 0
DWIDTH 9 0
BBX 8 17 1 0
BITMAP
03
06
08
00
04
0E
12
00
1E
63
63
C6
CC
F0
C1
62
3C
ENDCHAR
STARTCHAR uni1EC0
ENCODING 7872
SWIDTH 722 0
DWIDTH 13 0
BBX 12 22 1 0
BITMAP
0C00
0600
0100
0000
0180
03C0
0440
0000
3FF0
1830
1810
1810
1880
3080
3F00
3300
3100
6120
6020
6040
60C0
FFC0
ENDCHAR
STARTCHAR uni1EC1
ENCODING 7873
SWIDTH 444 0
DWIDTH 9 0
BBX 8 17 1 0
BITMAP
30
18
04
00
04
0E
12
00
1E
63
63
C6
CC
F0
C1
62
3C
ENDCHAR
STARTCHAR uni1EC4
ENCODING 7876
SWIDTH 722 0
DWIDTH 13 0
BBX 12 21 1 0
BITMAP
0740
0B80
0000
0180
03C0
0440
0000
3FF0
1830
1810
1810
1880
3080
3F00
3300
3100
6120
6020
6040
60C0
FFC0
ENDCHAR
STARTCHAR uni1EC5
ENCODING 7877
SWIDTH 444 0
DWIDTH 9 0
BBX 8 16 1 0
BITMAP
1D
2E
00
04
0E
12
00
1E
63
63
C6
CC
F0
C1
62
3C
ENDCHAR
STARTCHAR uni1EC6
ENCODING 7878
SWIDTH 722 0
DWIDTH 13 0
BBX 12 21 1 -3
BITMAP
0300
0780
0880
0000
3FF0
1830
1810
1810
1880
3080
3F00
3300
3100
6120
6020
6040
60C0
FFC0
0000
0C00
0C00
ENDCHAR
STARTCHAR uni1EC7
ENCODING 7879
SWIDTH 444 0
DWIDTH 9 0
BBX 8 16 1 -3
BITMAP
0C
1E
22
00
1E
63
63
C6
CC
F0
C1
62
3C
00
18
18
ENDCHAR
STARTCHAR uni1ECA
ENCODING 7882
SWIDTH 407 0
DWIDTH 8 0
BBX 6 17 2 -3
BITMAP
3C
18
18
18
18
30
30
30
30
60
60
60
60
F0
00
60
60
ENDCHAR
STARTCHAR uni1ECB
ENCODING 7883
SWIDTH 333 0
DWIDTH 5 0
BBX 4 16 1 -3
BITMAP
30
30
00
00
E0
60
60
60
60
C0
C0
D0
E0
00
60
60
ENDCHAR
STARTCHAR uni1ECC
ENCODING 7884
SWIDTH 778 0
DWIDTH 14 0
BBX 13 17 1 -3
BITMAP
07C0
1830
3030
6018
6018
C018
C018
C018
C018
C030
C030
6060
60C0
1F00
0000
0600
0600
ENDCHAR
STARTCHAR uni1ECD
ENCODING 7885
SWIDTH 500 0
DWIDTH 11 0
BBX 9 12 1 -3
BITMAP
1E00
6300
6180
C180
C180
C180
C300
6300
3C00
0000
1800
1800
ENDCHAR
STARTCHAR uni1ED0
ENCODING 7888
SWIDTH 778 0
DWIDTH 14 0
BBX 13 22 1 0
BITMAP
00C0
0180
0200
0000
0180
03C0
0440
0000
07C0
1830
3030
6018
6018
C018
C018
C018
C018
C030
C030
6060
60C0
1F00
ENDCHAR
STARTCHAR uni1ED1
ENCODING 7889
SWIDTH 500 0
DWIDTH 11 0
BBX 9 17 1 0
BITMAP
0300
0600
0800
0000
0400
0E00
1200
0000
1E00
6300
6180
C180
C180
C180
C300
6300
3C00
ENDCHAR
STARTCHAR uni1ED2
ENCODING 7890
SWIDTH 778 0
DWIDTH 14 0
BBX 13 22 1 0
BITMAP
0C00
0600
0100
0000
0180
03C0
0440
0000
07C0
1830
3030
6018
6018
C018
C018
C018
C018
C030
C030
6060
60C0
1F00
ENDCHAR
STARTCHAR uni1ED3
ENCODING 7891
SWIDTH 500 0
DWIDTH 11 0
BBX 9 17 1 0
BITMAP
3000
1800
0400
0000
0400
0E00
1200
0000
1E00
6300
6180
C180
C180
C180
C300
6300
3C00
ENDCHAR
STARTCHAR uni1ED6
ENCODING 7894
SWIDTH 778 0
DWIDTH 14 0
BBX 13 21 1 0
BITMAP
0740
0B80
0000
0180
03C0
0440
0000
07C0
1830
3030
6018
6018
C018
C018
C018
C018
C030
C030
6060
60C0
1F00
ENDCHAR
STARTCHAR uni1ED7
ENCODING 7895
SWIDTH 500 0
DWIDTH 11 0
BBX 9 16 1 0
BITMAP
1D00
2E00
0000
0400
0E00
1200
0000
1E00
6300
6180
C180
C180
C180
C300
6300
3C00
ENDCHAR
STARTCHAR uni1ED8
ENCODING 7896
SWIDTH 778 0
DWIDTH 14 0
BBX 13 21 1 -3
BITMAP
0300
0780
0880
0000
07C0
1830
3030
6018
6018
C018
C018
C018
C018
C030
C030
6060
60C0
1F00
0000
0600
0600
ENDCHAR
STARTCHAR uni1ED9
ENCODING 7897
SWIDTH 500 0
DWIDTH 11 0
BBX 9 16 1 -3
BITMAP
0C00
1E00
2200
0000
1E00
6300
6180
C180
C180
C180
C300
6300
3C00
0000
1800
1800
ENDCHAR
STARTCHAR uni1EDA
ENCODING 7898
SWIDTH 778 0
DWIDTH 14 0
BBX 15 18 1 0
BITMAP
0030
0060
0080
0000
07C6
1836
3032
601C
6018
C018
C018
C018
C018
C030
C030
6060
60C0
1F00
ENDCHAR
STARTCHAR uni1EDB
ENCODING 7899
SWIDTH 500 0
DWIDTH 11 0
BBX 11 13 1 0
BITMAP
0180
0300
0400
0000
1E60
6360
61A0
C1C0
C180
C180
C300
6300
3C00
ENDCHAR
STARTCHAR uni1EDC
ENCODING 7900
SWIDTH 778 0
DWIDTH 14 0
BBX 15 18 1 0
BITMAP
0300
0180
0040
0000
07C6
1836
3032
601C
6018
C018
C018
C018
C018
C030
C030
6060
60C0
1F00
ENDCHAR
STARTCHAR uni1EDD
ENCODING 7901
SWIDTH 500 0
DWIDTH 11 0
BBX 11 13 1 0
BITMAP
1800
0C00
0200
0000
1E60
6360
61A0
C1C0
C180
C180
C300
6300
3C00
ENDCHAR
STARTCHAR uni1EE0
ENCODING 7904
SWIDTH 778 0
DWIDTH 14 0
BBX 15 17 1 0
BITMAP
01D0
02E0
0000
07C6
1836
3032
601C
6018
C018
C018
C018
C018
C030
C030
6060
60C0
1F00
ENDCHAR
STARTCHAR uni1EE1
ENCODING 7905
SWIDTH 500 0
DWIDTH 11 0
BBX 11 12 1 0
BITMAP
0E80
1700
0000
1E60
6360
61A0
C1C0
C180
C180
C300
6300
3C00
ENDCHAR
STARTCHAR uni1EE2
ENCODING 7906
SWIDTH 778 0
DWIDTH 14 0
BBX 15 17 1 -3
BITMAP
07C6
1836
3032
601C
6018
C018
C018
C018
C018
C030
C030
6060
60C0
1F00
0000
0600
0600
ENDCHAR
STARTCHAR uni1EE3
ENCODING 7907
SWIDTH 500 0
DWIDTH 11 0
BBX 11 12 1 -3
BITMAP
1E60
6360
61A0
C1C0
C180
C180
C300
6300
3C00
0000
0C00
0C00
ENDCHAR
STARTCHAR uni1EE4
ENCODING 7908
SWIDTH 815 0
DWIDTH 15 0
BBX 13 17 2 -3
BITMAP
7C38
3010
3010
3010
6020
6020
6020
6020
C020
C040
C040
C040
6080
3F00
0000
0C00
0C00
ENDCHAR
STARTCHAR uni1EE5
ENCODING 7909
SWIDTH 611 0
DWIDTH 11 0
BBX 10 12 1 -3
BITMAP
E180
6180
6180
6180
C300
C300
C700
CB40
7180
0000
0C00
0C00
ENDCHAR
STARTCHAR uni1EE8
ENCODING 7912
SWIDTH 815 0
DWIDTH 15 0
BBX 15 18 2 0
BITMAP
0060
00C0
0100
0000
7C3E
3016
3012
3014
6028
6020
6020
6020
C020
C040
C040
C040
6080
3F00
ENDCHAR
STARTCHAR uni1EE9
ENCODING 7913
SWIDTH 611 0
DWIDTH 11 0
BBX 12 13 1 0
BITMAP
0180
0300
0400
0000
E1B0
61B0
6190
61A0
C340
C300
C700
CB40
7180
ENDCHAR
STARTCHAR uni1EEA
ENCODING 7914
SWIDTH 815 0
DWIDTH 15 0
BBX 15 18 2 0
BITMAP
0600
0300
0080
0000
7C3E
3016
3012
3014
6028
6020
6020
6020
C020
C040
C040
C040
6080
3F00
ENDCHAR
STARTCHAR uni1EEB
ENCODING 7915
SWIDTH 611 0
DWIDTH 11 0
BBX 12 13 1 0
BITMAP
1800
0C00
0200
0000
E1B0
61B0
6190
61A0
C340
C300
C700
CB40
7180
ENDCHAR
STARTCHAR uni1EEE
ENCODING 7918
SWIDTH 815 0
DWIDTH 15 0
BBX 15 17 2 0
BITMAP
03A0
05C0
0000
7C3E
3016
3012
3014
6028
6020
6020
6020
C020
C040
C040
C040
6080
3F00
ENDCHAR
STARTCHAR uni1EEF
ENCODING 7919
SWIDTH 611 0
DWIDTH 11 0
BBX 12 12 1 0
BITMAP
0E80
1700
0000
E1B0
61B0
6190
61A0
C340
C300
C700
CB40
7180
ENDCHAR
STARTCHAR uni1EF0
ENCODING 7920
SWIDTH 815 0
DWIDTH 15 0
BBX 15 17 2 -3
BITMAP
7C3E
3016
3012
3014
6028
6020
6020
6020
C020
C040
C040
C040
6080
3F00
0000
0C00
0C00
ENDCHAR
STARTCHAR uni1EF1
ENCODING 7921
SWIDTH 611 0
DWIDTH 11 0
BBX 12 12 1 -3
BITMAP
E1B0
61B0
6190
61A0
C340
C300
C700
CB40
7180
0000
0C00
0C00
ENDCHAR
STARTCHAR Ygrave
ENCODING 7922
SWIDTH 685 0
DWIDTH 14 0
BBX 13 18 2 0
BITMAP
1800
0C00
0200
0000
F078
6030
3020
3040
1880
1900
0E00
0C00
0C00
1800
1800
1800
1800
3C00
ENDCHAR
STARTCHAR ygrave
ENCODING 7923
SWIDTH 500 0
DWIDTH 9 0
BBX 10 16 -1 -3
BITMAP
3000
1800
0400
0000
30C0
7040
1880
1880
0D00
0D00
0600
0600
0400
0800
C800
F000
ENDCHAR
STARTCHAR uni1EF4
ENCODING 7924
SWIDTH 685 0
DWIDTH 14 0
BBX 13 17 2 -3
BITMAP
F078
6030
3020
3040
1880
1900
0E00
0C00
0C00
1800
1800
1800
1800
3C00
0000
0C00
0C00
ENDCHAR
STARTCHAR uni1EF5
ENCODING 7925
SWIDTH 500 0
DWIDTH 9 0
BBX 10 15 -1 -6
BITMAP
30C0
7040
1880
1880
0D00
0D00
0600
0600
0400
0800
C800
F000
0000
3000
3000
ENDCHAR
STARTCHAR uni1EF8
ENCODING 7928
SWIDTH 685 0
DWIDTH 14 0
BBX 13 17 2 0
BITMAP
0E80
1700
0000
F078
6030
3020
3040
1880
1900
0E00
0C00
0C00
1800
1800
1800
1800
3C00
ENDCHAR
STARTCHAR uni1EF9
ENCODING 7929
SWIDTH 500 0
DWIDTH 9 0
BBX 10 15 -1 -3
BITMAP
1D00
2E00
0000
30C0
7040
1880
1880
0D00
0D00
0600
0600
0400
0800
C800
F000
ENDCHAR
STARTCHAR uni2000
ENCODING 8192
SWIDTH 500 0
DWIDTH 9 0
BBX 1 1 0 0
BITMAP
00
ENDCHAR
STARTCHAR uni2001
ENCODING 8193
SWIDTH 1000 0
DWIDTH 19 0
BBX 1 1 0 0
BITMAP
00
ENDCHAR
STARTCHAR uni2002
ENCODING 8194
SWIDTH 500 0
DWIDTH 9 0
BBX 1 1 0 0
BITMAP
00
ENDCHAR
STARTCHAR uni2003
ENCODING 8195
SWIDTH 1000 0
DWIDTH 19 0
BBX 1 1 0 0
BITMAP
00
ENDCHAR
STARTCHAR uni2004
ENCODING 8196
SWIDTH 333 0
DWIDTH 6 0
BBX 1 1 0 0
BITMAP
00
ENDCHAR
STARTCHAR uni2005
ENCODING 8197
SWIDTH 250 0
DWIDTH 5 0
BBX 1 1 0 0
BITMAP
00
ENDCHAR
STARTCHAR uni2006
ENCODING 8198
SWIDTH 167 0
DWIDTH 3 0
BBX 1 1 0 0
BITMAP
00
ENDCHAR
STARTCHAR uni2007
ENCODING 8199
SWIDTH 556 0
DWIDTH 10 0
BBX 1 1 0 0
BITMAP
00
ENDCHAR
STARTCHAR uni2008
ENCODING 8200
SWIDTH 278 0
DWIDTH 5 0
BBX 1 1 0 0
BITMAP
00
ENDCHAR
STARTCHAR uni2009
ENCODING 8201
SWIDTH 200 0
DWIDTH 4 0
BBX 1 1 0 0
BITMAP
00
ENDCHAR
STARTCHAR uni200A
ENCODING 8202
SWIDTH 100 0
DWIDTH 2 0
BBX 1 1 0 0
BITMAP
00
ENDCHAR
STARTCHAR uni200B
ENCODING 8203
SWIDTH 0 0
DWIDTH 0 0
BBX 1 1 0 0
BITMAP
00
ENDCHAR
STARTCHAR uni2010
ENCODING 8208
SWIDTH 333 0
DWIDTH 6 0
BBX 5 1 0 5
BITMAP
F8
ENDCHAR
STARTCHAR uni2011
ENCODING 8209
SWIDTH 333 0
DWIDTH 6 0
BBX 5 1 0 5
BITMAP
F8
ENDCHAR
STARTCHAR figuredash
ENCODING 8210
SWIDTH 500 0
DWIDTH 9 0
BBX 9 1 0 5
BITMAP
FF80
ENDCHAR
STARTCHAR endash
ENCODING 8211
SWIDTH 500 0
DWIDTH 9 0
BBX 9 1 0 5
BITMAP
FF80
ENDCHAR
STARTCHAR emdash
ENCODING 8212
SWIDTH 1000 0
DWIDTH 19 0
BBX 19 1 0 5
BITMAP
FFFFE0
ENDCHAR
STARTCHAR afii00208
ENCODING 8213
SWIDTH 1000 0
DWIDTH 19 0
BBX 19 1 0 5
BITMAP
FFFFE0
ENDCHAR
STARTCHAR quoteleft
ENCODING 8216
SWIDTH 204 0
DWIDTH 4 0
BBX 3 5 2 9
BITMAP
20
40
80
C0
C0
ENDCHAR
STARTCHAR quoteright
ENCODING 8217
SWIDTH 204 0
DWIDTH 5 0
BBX 3 5 1 9
BITMAP
60
60
20
40
80
ENDCHAR
STARTCHAR quotesinglbase
ENCODING 8218
SWIDTH 204 0
DWIDTH 5 0
BBX 3 5 0 -3
BITMAP
60
60
20
40
80
ENDCHAR
STARTCHAR quotereversed
ENCODING 8219
SWIDTH 204 0
DWIDTH 5 0
BBX 3 5 1 9
BITMAP
C0
C0
80
40
20
ENDCHAR
STARTCHAR quotedblleft
ENCODING 8220
SWIDTH 389 0
DWIDTH 7 0
BBX 6 5 1 9
BITMAP
24
48
90
D8
D8
ENDCHAR
STARTCHAR quotedblright
ENCODING 8221
SWIDTH 389 0
DWIDTH 8 0
BBX 6 5 1 9
BITMAP
6C
6C
24
48
90
ENDCHAR
STARTCHAR quotedblbase
ENCODING 8222
SWIDTH 389 0
DWIDTH 8 0
BBX 6 5 0 -3
BITMAP
6C
6C
24
48
90
ENDCHAR
STARTCHAR uni201F
ENCODING 8223
SWIDTH 389 0
DWIDTH 8 0
BBX 6 5 1 9
BITMAP
D8
D8
90
48
24
ENDCHAR
STARTCHAR dagger
ENCODING 8224
SWIDTH 500 0
DWIDTH 9 0
BBX 8 17 1 -3
BITMAP
1C
1C
08
CB
FF
D3
10
10
30
30
20
20
20
40
40
40
40
ENDCHAR
STARTCHAR daggerdbl
ENCODING 8225
SWIDTH 500 0
DWIDTH 11 0
BBX 10 17 1 -3
BITMAP
0700
0700
0200
32C0
3FC0
34C0
0400
0C00
0C00
0800
CB00
FF00
D300
1000
1000
3800
3800
ENDCHAR
STARTCHAR bullet
ENCODING 8226
SWIDTH 606 0
DWIDTH 11 0
BBX 6 6 3 3
BITMAP
78
FC
FC
FC
FC
78
ENDCHAR
STARTCHAR ellipsis
ENCODING 8230
SWIDTH 1000 0
DWIDTH 18 0
BBX 14 2 1 0
BITMAP
C30C
C30C
ENDCHAR
STARTCHAR perthousand
ENCODING 8240
SWIDTH 1000 0
DWIDTH 24 0
BBX 23 14 0 0
BITMAP
1C6000
33A000
624000
624000
C48000
C48000
C91C1C
713232
026262
026262
04C4C4
04C4C4
08C8C8
087070
ENDCHAR
STARTCHAR guilsinglleft
ENCODING 8249
SWIDTH 333 0
DWIDTH 5 0
BBX 5 6 0 2
BITMAP
18
30
60
C0
60
30
ENDCHAR
STARTCHAR guilsinglright
ENCODING 8250
SWIDTH 333 0
DWIDTH 6 0
BBX 5 6 0 2
BITMAP
60
30
18
30
60
C0
ENDCHAR
STARTCHAR fraction
ENCODING 8260
SWIDTH 167 0
DWIDTH 3 0
BBX 7 14 -2 0
BITMAP
02
02
04
04
08
08
10
10
20
20
40
40
80
80
ENDCHAR
STARTCHAR oneinferior
ENCODING 8321
SWIDTH 333 0
DWIDTH 6 0
BBX 4 8 1 -4
BITMAP
10
70
30
20
20
60
60
F0
ENDCHAR
STARTCHAR twoinferior
ENCODING 8322
SWIDTH 333 0
DWIDTH 6 0
BBX 6 8 0 -4
BITMAP
78
CC
8C
18
30
60
C4
FC
ENDCHAR
STARTCHAR threeinferior
ENCODING 8323
SWIDTH 333 0
DWIDTH 6 0
BBX 7 8 0 -4
BITMAP
3C
66
46
1C
08
8C
CC
78
ENDCHAR
STARTCHAR uni20A5
ENCODING 8357
SWIDTH 889 0
DWIDTH 17 0
BBX 16 15 1 -3
BITMAP
0020
0020
0020
E75C
69E6
71C6
6186
6186
C38C
C30C
C30D
C306
0200
0200
0200
ENDCHAR
STARTCHAR uni20A6
ENCODING 8358
SWIDTH 815 0
DWIDTH 15 0
BBX 14 14 1 0
BITMAP
3C1C
1C08
1608
1608
1308
3FF8
2190
2190
3FF0
60F0
4060
4060
4020
E020
ENDCHAR
STARTCHAR uni20A9
ENCODING 8361
SWIDTH 926 0
DWIDTH 17 0
BBX 17 14 1 0
BITMAP
F1E380
60C100
60C100
61C200
61C200
3FFA00
326400
326400
3FFC00
1C3800
1C3800
1C3800
183000
183000
ENDCHAR
STARTCHAR Euro
ENCODING 8364
SWIDTH 722 0
DWIDTH 13 0
BBX 14 14 -1 0
BITMAP
01F4
060C
0C08
1808
1808
FF80
3000
3000
FF80
3008
3008
1810
1830
07C0
ENDCHAR
STARTCHAR uni20AD
ENCODING 8365
SWIDTH 741 0
DWIDTH 14 0
BBX 13 14 1 0
BITMAP
3C38
1820
1840
1880
1900
3200
FFF8
3B00
3180
6180
60C0
60C0
6060
F0F8
ENDCHAR
STARTCHAR uni2103
ENCODING 8451
SWIDTH 1102 0
DWIDTH 20 0
BBX 19 14 1 0
BITMAP
780FA0
CC3060
846040
84C040
CCC040
798000
018000
018000
018000
018040
018040
00C080
00C180
003E00
ENDCHAR
STARTCHAR uni2109
ENCODING 8457
SWIDTH 1047 0
DWIDTH 19 0
BBX 18 14 1 0
BITMAP
787FC0
CC30C0
843040
843040
CC3100
786100
007E00
006600
006200
00C200
00C000
00C000
00C000
01E000
ENDCHAR
STARTCHAR trademark
ENCODING 8482
SWIDTH 950 0
DWIDTH 21 0
BBX 20 8 1 6
BITMAP
FF7070
993060
1838E0
1838E0
182D60
182D60
182660
3C76F0
ENDCHAR
STARTCHAR uni212A
ENCODING 8490
SWIDTH 741 0
DWIDTH 14 0
BBX 13 14 1 0
BITMAP
3C38
1820
1840
1880
1900
3200
3700
3B00
3180
6180
60C0
60C0
6060
F0F8
ENDCHAR
STARTCHAR uni212B
ENCODING 8491
SWIDTH 704 0
DWIDTH 13 0
BBX 12 18 0 0
BITMAP
0300
0480
0480
0300
0100
0300
0380
0580
0580
08C0
08C0
10C0
1FC0
2060
2060
4060
4060
E0F0
ENDCHAR
STARTCHAR uni2132
ENCODING 8498
SWIDTH 667 0
DWIDTH 12 0
BBX 11 14 1 0
BITMAP
01E0
00C0
00C0
00C0
10C0
1180
1980
1F80
2180
2300
8300
8300
C300
FF80
ENDCHAR
STARTCHAR minus
ENCODING 8722
SWIDTH 606 0
DWIDTH 11 0
BBX 9 1 1 5
BITMAP
FF80
ENDCHAR
STARTCHAR fraction
ENCODING 8725
SWIDTH 167 0
DWIDTH 3 0
BBX 7 14 -2 0
BITMAP
02
02
04
04
08
08
10
10
20
20
40
40
80
80
ENDCHAR
STARTCHAR periodcentered
ENCODING 8729
SWIDTH 278 0
DWIDTH 5 0
BBX 2 2 2 5
BITMAP
C0
C0
ENDCHAR
STARTCHAR uni2236
ENCODING 8758
SWIDTH 278 0
DWIDTH 5 0
BBX 3 9 1 0
BITMAP
60
60
00
00
00
00
00
C0
C0
ENDCHAR
STARTCHAR uni2259
ENCODING 8793
SWIDTH 606 0
DWIDTH 11 0
BBX 9 8 1 4
BITMAP
0C00
1E00
2200
0000
FF80
0000
0000
FF80
ENDCHAR
STARTCHAR uni225A
ENCODING 8794
SWIDTH 606 0
DWIDTH 11 0
BBX 9 9 1 4
BITMAP
2200
2400
1800
1000
0000
FF80
0000
0000
FF80
ENDCHAR
STARTCHAR notequal
ENCODING 8800
SWIDTH 606 0
DWIDTH 11 0
BBX 9 15 1 -1
BITMAP
0200
0200
0200
0400
0400
0400
FF80
0800
0800
FF80
1000
1000
2000
2000
2000
ENDCHAR
STARTCHAR equivalence
ENCODING 8801
SWIDTH 606 0
DWIDTH 11 0
BBX 9 5 0 3
BITMAP
FF80
0000
FF80
0000
FF80
ENDCHAR
STARTCHAR uni2262
ENCODING 8802
SWIDTH 606 0
DWIDTH 11 0
BBX 9 15 0 -2
BITMAP
0200
0200
0200
0400
0400
FF80
0800
FF80
0800
FF80
1000
1000
2000
2000
2000
ENDCHAR
STARTCHAR lessequal
ENCODING 8804
SWIDTH 606 0
DWIDTH 11 0
BBX 10 11 0 -1
BITMAP
00C0
0380
0E00
3800
E000
3800
0E00
0380
00C0
0000
FFC0
ENDCHAR
STARTCHAR greaterequal
ENCODING 8805
SWIDTH 606 0
DWIDTH 11 0
BBX 10 11 1 -1
BITMAP
C000
7000
1C00
0700
01C0
0700
1C00
7000
C000
0000
FFC0
ENDCHAR
STARTCHAR uni226E
ENCODING 8814
SWIDTH 606 0
DWIDTH 11 0
BBX 10 15 0 -2
BITMAP
0100
0100
0100
02C0
0380
0E00
3C00
E400
3C00
0E00
0B80
08C0
1000
1000
1000
ENDCHAR
STARTCHAR uni226F
ENCODING 8815
SWIDTH 606 0
DWIDTH 11 0
BBX 10 15 1 -2
BITMAP
0100
0100
0100
C200
7200
1E00
0700
05C0
0700
1C00
7800
C800
1000
1000
1000
ENDCHAR
STARTCHAR uni2270
ENCODING 8816
SWIDTH 606 0
DWIDTH 11 0
BBX 10 15 0 -3
BITMAP
0100
0100
01C0
0380
0E00
3A00
E400
3C00
0E00
0B80
08C0
0800
FFC0
1000
1000
ENDCHAR
STARTCHAR uni2271
ENCODING 8817
SWIDTH 606 0
DWIDTH 11 0
BBX 10 15 1 -3
BITMAP
0100
0100
C100
7200
1E00
0700
05C0
0700
1C00
7800
C800
0800
FFC0
1000
1000
ENDCHAR
STARTCHAR fi
ENCODING -1
SWIDTH 611 0
DWIDTH 10 0
BBX 10 18 0 -4
BITMAP
0380
0CC0
08C0
1800
1800
FF80
3180
3180
3180
6300
6300
6300
6340
6380
C000
C000
C000
C000
ENDCHAR
STARTCHAR fl
ENCODING -1
SWIDTH 611 0
DWIDTH 10 0
BBX 10 18 0 -4
BITMAP
03C0
0CC0
08C0
18C0
18C0
FF80
3180
3180
3180
6180
6300
6300
6340
6380
C000
C000
C000
C000
ENDCHAR
ENDFONT
